<?xml version="1.0" encoding="utf-8"?>
<!-- Generator: Adobe Illustrator 17.0.0, SVG Export Plug-In . SVG Version: 6.00 Build 0)  -->
<!DOCTYPE svg PUBLIC "-//W3C//DTD SVG 1.1//EN" "http://www.w3.org/Graphics/SVG/1.1/DTD/svg11.dtd">
<svg version="1.1" id="brainBoxSvg" xmlns="http://www.w3.org/2000/svg" xmlns:xlink="http://www.w3.org/1999/xlink" x="0px" y="0px"
	viewBox="-25 -20 220 220" enable-background="new 0 0 200 200" xml:space="preserve">
<polyline fill="none" stroke="#0B0B0B" stroke-width="0.75" stroke-miterlimit="10" points="16.034,163.795 127.758,185.426 
	181.878,130.413 82.598,113.201 16.034,163.795 "/>
<path fill="none" stroke="#0B0B0B" stroke-width="0.5" stroke-miterlimit="10" d="M125.105,185.426"/>
<g>
	<path fill="#D59BC1" stroke="#090909" stroke-width="0.5" stroke-miterlimit="10" d="M67.425,150.747
		c-0.158-0.111-0.651-0.456-1.282-0.896c0.87,2.466,4.143,4.164,6.461,3.51c-0.066-0.096-0.12-0.264-0.201-0.277
		c-3.934-0.673-4.298-1.274-2.287-4.674c2.101-3.553,4.816-5.983,9.57-5.616c5.664,0.437,8.794-0.918,12.517-4.537
		c0.935,2.967-0.14,5.417-1.873,8.08c2.668-1.711,3.216-3.715,2.841-9.51c5.468,0.078,9.667-3.129,14.259-5.402
		c1.452-0.719,2.979-1.354,4.541-1.781c2.713-0.743,5.282-0.223,7.562,1.66c0.112-0.296,0.224-0.591,0.336-0.887
		c-1.444-0.591-2.839-1.436-4.343-1.721c-3.017-0.571-5.724,0.675-8.336,1.984c-2.216,1.111-4.373,2.333-6.566,3.488
		c-0.499,0.263-1.017,0.536-1.561,0.663c-3.803,0.885-7.551,1.508-10.201,5.07c-0.986,1.325-3.678,1.717-5.667,1.968
		c-4.643,0.585-9.227-0.056-13.623-1.665c-3.027-1.108-4.503-3.573-4.307-6.884c0.359-6.061,3.994-10.636,9.848-12.678
		c1.002-0.35,2.007-1.206,2.596-2.094c2.242-3.378,4.448-6.685,8.877-7.618c0.541-0.114,1.037-0.864,1.371-1.425
		c2.003-3.373,4.606-5.814,8.841-6.112c0.545-0.038,1.27-0.79,1.508-1.371c2.674-6.545,9.411-10.728,16.591-10.077
		c0.97,0.088,2.025,0.634,2.786,1.264c1.137,0.941,2.036,1.283,3.357,0.29c1.848-1.39,4.067-1.328,5.812-0.109
		c2.402,1.677,5.031,2.123,7.796,2.437c4.053,0.461,6.891,3.141,7.271,7.192c0.245,2.61,0.046,5.261,0.046,7.893
		c0.228,0.005,0.456,0.01,0.683,0.015c0-2.735,0-5.47,0-8.119c3.281-0.99,6.308-0.007,7.569,2.797
		c0.893,1.987,1.027,4.294,1.629,6.424c0.28,0.99,0.605,2.3,1.358,2.77c3.247,2.028,4.39,4.993,4.522,8.529
		c0.2,5.354-2.313,9.738-5.425,13.799c-1.439,1.877-2.005,3.406-1.186,5.849c1.589,4.742-0.639,9.272-5.323,11.227
		c-2.339,0.976-4.958,1.303-7.438,1.92c-0.515-4.735,3.193-6.689,5.345-9.494c-0.143-0.103-0.286-0.207-0.429-0.31
		c-1.018,0.951-2.036,1.902-3.365,3.144c0-2.774,0-5.076,0-7.377c-0.172-0.012-0.344-0.024-0.517-0.036
		c-0.053,0.473-0.083,0.949-0.162,1.418c-0.63,3.762-1.112,7.557-1.969,11.268c-0.451,1.952-1.829,3.324-4.107,3.794
		c-1.155,0.238-2.324,1.105-3.167,1.984c-3.293,3.435-7.326,4.883-12.047,4.909c-0.8,0.004-1.805,0.45-2.362,1.023
		c-4.189,4.313-9.229,5.466-15.011,4.196c-3.866-0.849-7.741-1.66-11.613-2.483c-0.554-0.118-1.11-0.237-1.671-0.312
		c-7.064-0.94-11.572-4.572-12.806-11.689c-0.051-0.295-0.303-0.557-0.462-0.834c-0.226,0.091-0.451,0.182-0.677,0.273
		c1.186,2.973,2.372,5.945,3.634,9.11c-3.167,0.837-6.573,1.536-9.914,0.21c-1.24-0.492-2.356-1.745-3.097-2.915
		c-4.325-6.827-3.993-14.576,0.75-20.817c0.421-0.554,0.909-1.059,1.299-1.511c2.885,1.003,5.657,1.966,7.986,2.775
		C71.936,145.045,69.769,147.784,67.425,150.747z M119.37,105.126c1.3,0.157,2.372,0.286,3.651,0.44
		c-2.726-2.242-7.645-0.767-8.206,2.224c1.098-0.774,2.209-1.558,3.357-2.367c1.611,3.058,1.294,6.268-0.821,8.422
		c-0.386,0.393-1.431,0.567-1.961,0.348c-3.431-1.416-6.49-0.705-9.077,1.647c-1.914,1.74-3.755,3.67-5.164,5.81
		c-2.253,3.423-5.356,4.443-9.155,3.82c-1.707-0.28-2.367,0.292-2.99,1.752c-1.629,3.818-4.471,5.493-8.437,4.735
		c-1.674-0.32-3.181-1.481-4.725-2.241c0.203,1.391,1.523,2.083,2.847,2.634c4.246,1.768,8.671,0.005,10.819-4.374
		c0.639-1.303,1.268-1.872,2.865-1.666c3.979,0.512,7.135-0.763,9.463-4.236c1.465-2.185,3.361-4.167,5.359-5.913
		c2.679-2.341,5.805-2.448,8.896-0.707c1.326,0.747,2.907,1.789,2.233,3.36c-0.55,1.283-2.098,2.189-3.298,3.147
		c-0.379,0.303-1.064,0.235-1.609,0.337c2.312,0.916,3.897-0.131,5.135-1.779c1.568-2.088,0.403-3.792-1.042-5.313
		C120.385,110.641,120.512,109.993,119.37,105.126z M80.849,156.093c2.57,4.309,11.813,4.54,14.556-0.723
		c0.57-1.094,1.158-1.727,2.426-1.979c2.37-0.471,4.333-1.655,5.711-3.708c1.193-1.778,3.035-2.674,5.107-2.528
		c2.378,0.169,4.778,0.579,7.075,1.212c4.123,1.137,9.108-0.517,11.245-3.974c1.595-2.581,0.933-5.732-1.791-7.336
		c0.323,0.579,0.497,0.921,0.698,1.247c1.785,2.881,1.47,5.348-1.13,7.429c-2.648,2.119-5.647,2.835-8.993,1.785
		c-1.351-0.424-2.711-0.901-4.104-1.095c-3.051-0.426-6.219-0.374-8.221,2.259c-1.85,2.434-4.145,3.698-7.026,4.311
		c-0.46,0.098-0.998,0.514-1.217,0.927c-2.407,4.537-7.468,6.048-12.062,3.543C82.481,157.115,81.87,156.712,80.849,156.093z
		 M134.496,133.313c-0.196-0.017-0.392-0.033-0.589-0.05c-0.832,3.081-1.043,6.14,0.511,9.136c0.193-0.337,0.215-0.675,0.148-0.993
		c-0.671-3.167-0.675-3.166,2.203-4.711c7.714-4.142,9.181-13.339,3.013-19.41c-1.208-1.189-2.78-2.021-4.121-2.974
		c1.047-1.274,2.058-2.504,3.068-3.733c0.016,0.048,0.033,0.096,0.049,0.144c-1.577,1.343-3.155,2.686-4.728,4.025
		c7.078,3.68,9.659,7.668,8.526,13.174c-0.927,4.505-4.559,8.29-8.433,8.631C134.263,135.452,134.38,134.383,134.496,133.313z
		 M112.209,134.311c-0.496,0.578-0.867,0.838-0.991,1.184c-0.569,1.585-1.793,2.037-3.363,2.302
		c-3.284,0.554-5.915,2.287-7.961,4.858c-0.285,0.358-0.407,0.843-0.604,1.269c2.861-3.124,6.02-5.344,10.429-5.586
		c0.159,1.097,0.296,2.039,0.477,3.286C110.902,139.055,111.494,136.908,112.209,134.311z M83.043,119.646
		c0.06,0.153,0.119,0.307,0.179,0.46c2.614-0.551,5.227-1.103,8.017-1.691c-0.057-3.893,1.459-7.262,5.308-9.433
		c-3.144,0.782-5.394,3.515-5.809,7.031c-0.186,1.574-0.735,1.97-2.341,2.106C86.581,118.271,84.825,119.107,83.043,119.646z
		 M148.967,116.623c2.503,5.201,3.174,10.297-0.67,15.176c1.527-1.267,3.054-2.533,4.689-3.889
		c-0.586-0.028-1.121-0.055-1.731-0.084C151.929,123.698,152.004,119.849,148.967,116.623z M122.515,124.344
		c3.063-2.987,5.568-1.553,8.233,0.008c1.795,1.051,3.835,1.725,5.816,2.429c0.593,0.211,1.358-0.045,1.507-0.054
		c-2.498-1.148-5.244-2.443-8.02-3.67c-1.151-0.509-2.337-1.043-3.563-1.262C124.682,121.47,123.478,122.251,122.515,124.344z
		 M118.399,159.545c0.016-0.174,0.033-0.348,0.049-0.522c-0.72-0.118-1.472-0.142-2.154-0.37c-2.095-0.7-3.76-0.581-5.446,1.232
		c-0.997,1.071-2.861,1.368-4.344,1.993c-0.444,0.187-0.916,0.309-1.375,0.461c2.663,0.527,4.886-0.391,6.598-2.111
		c1.179-1.185,2.221-1.403,3.732-0.957C116.383,159.543,117.415,159.465,118.399,159.545z M136.466,107.373
		c-0.692-1.968-2.054-3.431-3.722-4.741c-0.716-0.562-1.268-1.374-1.756-2.156c-0.64-1.026-1.143-2.134-1.705-3.207
		c0.237,1.917,0.58,3.831,1.667,5.155C132.479,104.284,134.559,105.707,136.466,107.373z M122.909,159.612
		c3.357-2.252,5.536-8.535,3.989-11.032c-0.35,1.847-0.485,3.812-1.128,5.6C125.11,156.016,123.953,157.68,122.909,159.612z
		 M106.356,104.011c2.164-2.744,4.985-4.079,8.521-3.979C111.792,98.704,108.045,100.408,106.356,104.011z"/>
	<path fill="#D59BC1" stroke="#0B0B0B" stroke-width="0.5" stroke-miterlimit="10" d="M78.649,98.055
		c2.641,0.635,4.986,1.199,7.294,1.754c-0.554-0.485-1.29-1.128-2.328-2.035c1.319-1.312,2.462-2.977,4.049-3.914
		c2.973-1.755,6.091-3.415,9.359-4.51c3.533-1.184,6.284,0.897,8.923,3.273c-0.422,0.24-0.669,0.455-0.954,0.532
		c-4.987,1.349-8.399,4.517-10.863,8.875c-0.377,0.667-1.223,1.327-1.97,1.5c-3.593,0.83-5.998,3.11-7.885,5.921
		c-1.74-1.017-3.4-1.988-5.06-2.958c-0.1,0.151-0.199,0.303-0.299,0.454c1.548,1.047,3.095,2.094,5.07,3.43
		c-4.818,1.474-7.347,4.482-9.536,7.928c-0.471,0.742-1.401,1.375-2.259,1.679c-7.318,2.593-11.309,10.105-9.207,17.402
		c0.138,0.478,0.074,1.22-0.222,1.579c-4.211,5.095-5.484,10.789-3.788,17.134c0.031,0.116-0.036,0.256-0.147,0.931
		c-2.57,0.191-5.287,0.639-7.979,0.525c-2.852-0.121-3.757-2.789-2.439-5.183c1.107-2.011,1.551-4.374,2.362-6.8
		c0.368-0.056,1.228-0.187,2.109-0.322c-1.962-0.722-3.783-1.393-5.532-2.036c0.068,0.111,0.245,0.563,0.561,0.884
		c2.222,2.258,1.673,7.295-1.053,9.008c-0.402,0.252-1.011,0.284-1.517,0.261c-5.14-0.235-9.234-4.435-9.364-9.644
		c-0.105-4.221,1.324-8.034,3.344-11.807c1.133,1.534,2.189,2.964,3.246,4.395c0.179-0.12,0.359-0.241,0.538-0.361
		c-0.315-0.421-0.655-0.827-0.939-1.267c-0.539-0.836-1.105-1.663-1.554-2.546c-0.962-1.892-1.328-3.857,0.358-5.518
		c1.67-1.645,3.68-1.113,5.702-0.593c-0.065,0.923-0.12,1.709-0.195,2.791c1.08-1.598,1.943-2.874,2.687-3.975
		c-1.071,0.093-2.394,0.207-4.328,0.375c0.952-3.672,1.491-6.812,2.585-9.753c2.288-6.154,10.78-7.962,16.103-3.587
		c0.5,0.411,0.978,0.847,1.745,1.073c-0.196-0.33-0.312-0.78-0.603-0.971c-1.61-1.058-3.184-2.217-4.921-3.028
		c-2.218-1.035-2.915-2.005-2.546-4.474c0.751-5.019,4.992-8.827,10.376-9.288c0.87-0.074,1.754-0.11,2.624-0.052
		c2.414,0.16,4.783,0.476,6.51-1.907c0.468-0.646,1.634-1.038,2.518-1.116c3.107-0.274,6.232-0.36,9.418-0.52
		c-1.958,2.084-3.736,4.019-5.584,5.889c-0.247,0.25-0.842,0.182-1.279,0.234C80.791,97.83,79.801,97.93,78.649,98.055z
		 M74.991,103.282c-1.875-0.942-3.559-0.383-4.45,1.214c-0.868,1.555-1.502,3.422-1.573,5.178c-0.106,2.603-0.993,4.642-3.022,6.18
		c-2.018,1.53-4.19,2.865-6.201,4.404c-1.257,0.962-2.586,1.984-3.448,3.262c-1.716,2.545-2.217,5.366-0.861,8.28
		c0.199-0.276,0.282-0.58,0.225-0.856c-0.909-4.433,0.801-7.709,4.535-10.148c1.957-1.278,3.899-2.586,5.768-3.985
		c2.484-1.858,3.85-4.192,3.721-7.466C69.534,105.479,71.252,103.8,74.991,103.282z M69.848,97.48
		c-1.528,0.274-2.469,1.51-3.501,2.76c-0.981,1.189-2.2,2.187-3.315,3.269c1.243-0.345,2.48-0.709,3.26-1.505
		C67.625,100.644,68.67,99.012,69.848,97.48z M50.912,134.691c-1.812,0.842-2.497,3.073-1.51,4.794
		C49.88,137.968,50.423,136.245,50.912,134.691z"/>
</g>
<polyline fill="none" stroke="#0B0B0B" stroke-width="0.75" stroke-miterlimit="10" points="16.034,163.795 16.034,68.839 
	127.758,85.071 "/>
<polyline fill="none" stroke="#0B0B0B" stroke-width="0.75" stroke-miterlimit="10" points="181.878,130.413 181.878,49.973 
	127.758,85.071 127.758,185.426 "/>
<path fill="none" stroke="#0B0B0B" stroke-width="0.75" stroke-miterlimit="10" d="M181.878,49.973"/>
<path fill="none" stroke="#0B0B0B" stroke-width="0.75" stroke-miterlimit="10" d="M127.758,85.071"/>
<path fill="none" stroke="#0B0B0B" stroke-width="0.75" stroke-miterlimit="10" d="M181.878,49.973L73.533,35.939
	c-20.488,12.188-57.499,32.9-57.499,32.9"/>
<polyline fill="none" stroke="#0B0B0B" stroke-width="0.75" stroke-miterlimit="10" points="181.878,49.973 181.878,22.935 
	73.533,10.434 73.533,35.939 "/>
<g>
	<path fill="none" stroke="#211915" stroke-width="0.75" stroke-miterlimit="10" d="M116.591,25.194l17.759,1.969
		c0,0,2.657-0.744,0.469-2.766l-5.403-0.756c0,0-0.666-2.152-2.984-2.305c0,0-3.252-0.722-3.638,2.103l-5.037-0.704l-0.733-0.102
		C117.025,22.632,114.24,23.578,116.591,25.194z"/>
</g>
<path fill="none" stroke="#211915" stroke-width="0.75" stroke-miterlimit="10" d="M16.034,95.551"/>
<g>
	<g>
		<path d="M53.667,59.316l-2.621,1.337c-3.231,1.648-6.303,2.364-8.968,1.992l-1.259-0.176l-7.617,3.878l-2.659-0.375l20.204-10.277
			l3.918,0.538C57.331,56.6,56.888,57.673,53.667,59.316z M50.534,57.523l-6.827,3.476l1.259,0.175
			c0.847,0.118,1.769-0.053,3.211-0.788l3.024-1.541c1.438-0.733,1.438-1.031,0.591-1.148L50.534,57.523z"/>
		<path d="M54.83,59.383c3.221-1.643,6.491-2.384,9.118-2.023c2.63,0.361,2.23,1.499-0.991,3.147L52.45,65.883
			c-3.245,1.66-6.54,2.407-9.169,2.036c-2.626-0.371-2.202-1.52,1.043-3.176L54.83,59.383z M46.793,65.222
			c-1.448,0.739-1.464,1.096-0.612,1.216c0.852,0.12,1.938-0.086,3.386-0.827l10.911-5.577c1.439-0.735,1.449-1.089,0.597-1.206
			c-0.852-0.117-1.933,0.088-3.371,0.822L46.793,65.222z"/>
		<path d="M54.934,69.412c0.376-0.289,0.597-0.466,2.25-1.314l3.186-1.634c1.88-0.964,2.035-1.395,0.811-1.566l-0.929-0.13
			l-8.254,4.23l-2.687-0.379l20.206-10.345l4.057,0.558c2.791,0.384,2.47,1.33-0.635,2.925l-1.584,0.813
			c-2.075,1.065-3.995,1.683-5.86,1.856c0.684,0.529-0.406,1.376-2.517,2.46l-3.128,1.606c-0.986,0.506-1.687,0.882-2.171,1.307
			L54.934,69.412z M69.332,60.116l-6.192,3.173l1.052,0.146c1.003,0.14,2.134-0.042,3.749-0.87l1.987-1.019
			c1.439-0.738,1.656-1.12,0.701-1.252L69.332,60.116z"/>
		<path d="M78.571,59.519l8.361,1.149l-2.873,1.48l-2.832-0.391l-17.334,8.92l-2.705-0.382l17.334-8.911l-2.824-0.389L78.571,59.519
			z"/>
		<path d="M75.767,72.351l-2.747-0.388l3.213-1.967l-3.335-0.468l-4.151,1.833l-2.49-0.351l22.969-10.027l3.977,0.547L75.767,72.351
			z M75.993,68.159l2.618,0.366l8.902-5.45L75.993,68.159z"/>
		<path d="M100.783,65.606l-0.719,0.373c-2.074,1.075-3.949,1.687-5.831,1.861c0.804,0.548-0.154,1.422-2.293,2.531l-1.65,0.855
			c-3.13,1.623-6.231,2.295-8.966,1.909l-4.293-0.606l20.207-10.446l4.119,0.566C104.191,63.039,103.888,63.996,100.783,65.606z
			 M97.093,63.945l-5.327,2.756l1.068,0.148c1.019,0.142,2.159-0.041,3.773-0.877l1.123-0.582c1.439-0.745,1.649-1.131,0.68-1.265
			L97.093,63.945z M88.879,68.195l-6.22,3.219l1.565,0.22c0.92,0.129,1.91-0.056,3.416-0.836l1.765-0.914
			c1.879-0.973,1.935-1.345,0.692-1.518L88.879,68.195z"/>
		<path d="M107.327,63.47l2.744,0.377l-17.307,8.987l4.524,0.636l-2.9,1.508l-7.268-1.025L107.327,63.47z"/>
		<path d="M110.063,69.433l3.791,0.527l-2.887,1.505l-3.791-0.529l-5.932,3.089l4.771,0.671l-2.9,1.513l-7.528-1.062l20.207-10.514
			l7.527,1.034l-2.873,1.499l-4.771-0.658L110.063,69.433z"/>
	</g>
	<g>
		<path fill="#D59BC1" stroke="#D59BC1" stroke-width="0.5" stroke-miterlimit="10" d="M29.613,78.055l0.015,0.464
			c0.043,1.334-0.39,2.109-1.403,2.367c1.249,0.624,1.761,1.677,1.805,3.035l0.033,1.043c0.063,1.97-1.087,2.837-3.376,2.475
			l-3.613-0.571l-0.52-12.969l3.519,0.583C28.483,74.883,29.548,76.045,29.613,78.055z M24.959,76.16l0.129,3.444l0.905,0.147
			c0.862,0.14,1.375-0.108,1.339-1.146l-0.025-0.725c-0.032-0.931-0.405-1.4-1.228-1.536L24.959,76.16z M25.157,81.455l0.148,3.952
			l1.317,0.209c0.772,0.123,1.179-0.121,1.146-1.073l-0.039-1.119c-0.041-1.195-0.494-1.634-1.543-1.804L25.157,81.455z"/>
		<path fill="#D59BC1" stroke="#D59BC1" stroke-width="0.5" stroke-miterlimit="10" d="M36.278,88.955
			c-0.132-0.345-0.219-0.557-0.245-1.589l-0.05-1.999c-0.03-1.186-0.497-1.698-1.535-1.865l-0.789-0.127l0.144,5.19l-2.276-0.359
			l-0.392-12.882l3.483,0.577c2.384,0.395,3.428,1.548,3.474,3.545l0.023,1.013c0.03,1.323-0.427,2.108-1.433,2.364
			c1.149,0.605,1.544,1.633,1.574,2.962l0.044,1.959c0.014,0.615,0.045,1.07,0.281,1.575L36.278,88.955z M33.497,77.566l0.111,3.973
			l0.895,0.145c0.853,0.138,1.364-0.108,1.338-1.138l-0.032-1.273c-0.023-0.925-0.388-1.391-1.203-1.525L33.497,77.566z"/>
		<path fill="#D59BC1" stroke="#D59BC1" stroke-width="0.5" stroke-miterlimit="10" d="M47.081,90.662l-2.259-0.357l-0.423-2.347
			l-2.765-0.441l-0.345,2.229l-2.07-0.327l2.053-12.417l3.337,0.553L47.081,90.662z M41.889,85.842l2.175,0.349l-1.198-6.642
			L41.889,85.842z"/>
		<path fill="#D59BC1" stroke="#D59BC1" stroke-width="0.5" stroke-miterlimit="10" d="M47.972,78.113l2.263,0.375l0.112,12.69
			l-2.23-0.352L47.972,78.113z"/>
		<path fill="#D59BC1" stroke="#D59BC1" stroke-width="0.5" stroke-miterlimit="10" d="M53.9,82.618l0.043,9.128l-1.998-0.316
			l-0.089-12.673l2.825,0.468l2.314,7.981l-0.009-7.599l1.995,0.331L58.966,92.54l-2.267-0.358L53.9,82.618z"/>
	</g>
</g>
<g>
	<path d="M169.321,123.073c0.181-0.151,0.344-0.286,0.521-0.433c0.156,3.704,0.308,7.305,0.458,10.842
		c-0.162,0.153-0.324,0.306-0.5,0.473C169.644,130.421,169.485,126.807,169.321,123.073z"/>
	<path d="M174.886,118.441c0.12-0.1,0.228-0.19,0.348-0.289c0.087,3.555,0.171,7.018,0.254,10.424
		c-0.108,0.102-0.216,0.205-0.335,0.317C175.066,125.49,174.977,122.012,174.886,118.441z"/>
	<path d="M176.464,117.126c0.114-0.095,0.214-0.178,0.33-0.275c0.068,3.511,0.134,6.94,0.199,10.309
		c-0.105,0.099-0.206,0.195-0.319,0.301C176.606,124.097,176.536,120.665,176.464,117.126z"/>
	<path d="M171.855,132.018c-0.12,0.113-0.233,0.22-0.359,0.34c-0.133-3.501-0.269-7.076-0.409-10.753
		c0.127-0.106,0.244-0.203,0.374-0.311C171.595,124.955,171.726,128.521,171.855,132.018z"/>
	<path d="M171.382,132.464c-0.086,0.081-0.161,0.152-0.245,0.232c-0.138-3.513-0.279-7.095-0.424-10.779
		c0.087-0.072,0.164-0.137,0.255-0.212C171.109,125.371,171.247,128.946,171.382,132.464z"/>
	<path d="M169.681,134.071c-0.087,0.083-0.165,0.156-0.253,0.239c-0.161-3.555-0.325-7.18-0.494-10.912
		c0.091-0.076,0.171-0.142,0.263-0.219C169.363,126.899,169.524,130.525,169.681,134.071z"/>
	<path d="M168.028,124.143c0.097-0.081,0.167-0.139,0.257-0.214c0.178,3.745,0.351,7.391,0.521,10.967
		c-0.079,0.074-0.157,0.148-0.247,0.233C168.386,131.56,168.21,127.907,168.028,124.143z"/>
	<path d="M167.671,135.976c-0.085,0.08-0.16,0.151-0.252,0.239c-0.189-3.598-0.381-7.279-0.58-11.068
		c0.043-0.044,0.083-0.09,0.125-0.126c0.042-0.037,0.085-0.064,0.138-0.103C167.296,128.7,167.486,132.376,167.671,135.976z"/>
	<path d="M167.498,124.588c0.092-0.077,0.168-0.14,0.258-0.214c0.185,3.758,0.365,7.413,0.542,11
		c-0.077,0.073-0.155,0.146-0.247,0.233C167.871,132.026,167.687,128.359,167.498,124.588z"/>
	<path d="M177.405,127.296c-0.005-0.285-0.01-0.542-0.014-0.799c-0.055-3.155-0.112-6.376-0.169-9.665
		c-0.001-0.067-0.011-0.13-0.001-0.202c0.009-0.059,0.043-0.129,0.066-0.194c0.021,0.025,0.052,0.039,0.06,0.079
		c0.011,0.055,0.005,0.13,0.006,0.197c0.062,3.529,0.123,6.98,0.179,10.357c0.002,0.128,0.064,0.241-0.099,0.464
		c-0.029,0.039-0.013,0.232-0.017,0.352c-0.01,0.354-0.083,0.513-0.323,0.729c-0.134,0.121-0.205,0.095-0.223-0.057
		c-0.015-0.126-0.032-0.258-0.018-0.41c0.017-0.171,0.036-0.411,0.111-0.542C177.09,127.385,177.261,127.233,177.405,127.296z
		 M176.985,128.112c0.044,0.105-0.054,0.47,0.16,0.261c0.19-0.186,0.13-0.375,0.129-0.528c-0.002-0.155,0.038-0.435-0.153-0.253
		C176.932,127.772,177.02,127.934,176.985,128.112z"/>
	<path d="M166.343,131.896c-0.104-1.891-0.21-3.807-0.317-5.747c-0.004-0.073-0.016-0.141-0.008-0.221
		c0.005-0.048,0.042-0.114,0.065-0.171c0.032,0.016,0.075,0.016,0.093,0.051c0.018,0.035,0.01,0.104,0.013,0.158
		c0.213,3.888,0.42,7.677,0.622,11.373c0.003,0.059,0.015,0.113,0.004,0.18c-0.007,0.045-0.048,0.11-0.074,0.166
		c-0.026-0.01-0.067-0.002-0.076-0.033c-0.016-0.053-0.012-0.13-0.015-0.197C166.549,135.626,166.447,133.773,166.343,131.896z"/>
	<path d="M166.602,131.645c-0.103-1.888-0.206-3.801-0.312-5.737c-0.004-0.073-0.013-0.142-0.007-0.221
		c0.003-0.038,0.042-0.13,0.057-0.137c0.036-0.018,0.083-0.022,0.095,0.006c0.019,0.044,0.014,0.119,0.018,0.182
		c0.209,3.889,0.413,7.681,0.612,11.379c0.003,0.05,0.014,0.096,0.004,0.154c-0.009,0.049-0.045,0.112-0.069,0.168
		c-0.028-0.006-0.071,0.007-0.08-0.022c-0.016-0.052-0.012-0.129-0.015-0.196C166.805,135.386,166.704,133.527,166.602,131.645z"/>
	<path d="M177.231,121.792c0.029,1.618,0.059,3.22,0.087,4.804c0.001,0.063,0.006,0.123-0.001,0.192
		c-0.004,0.032-0.037,0.109-0.05,0.116c-0.026,0.015-0.06,0.015-0.068-0.011c-0.013-0.039-0.007-0.104-0.008-0.159
		c-0.06-3.197-0.12-6.462-0.183-9.797c-0.001-0.059-0.009-0.114,0.001-0.178c0.007-0.043,0.041-0.097,0.063-0.146
		c0.022,0.015,0.055,0.016,0.062,0.048c0.011,0.055,0.006,0.13,0.007,0.197C177.171,118.52,177.201,120.165,177.231,121.792z"/>
	<path d="M173.58,130.391c-0.107-3.462-0.216-6.985-0.329-10.656c0.065,0.02,0.111,0.011,0.128,0.045
		c0.018,0.037,0.01,0.113,0.012,0.173c0.105,3.431,0.207,6.786,0.304,10.072C173.698,130.121,173.761,130.233,173.58,130.391z"/>
	<path d="M173.847,119.305c0.104,3.605,0.205,7.105,0.306,10.584c-0.061-0.001-0.108,0.02-0.127-0.007
		c-0.019-0.029-0.009-0.104-0.011-0.161c-0.096-3.276-0.195-6.623-0.293-10.047C173.72,119.572,173.657,119.441,173.847,119.305z"/>
	<path d="M174.19,119.016c0.1,3.586,0.197,7.085,0.293,10.561c-0.056-0.005-0.105,0.014-0.119-0.017
		c-0.018-0.04-0.01-0.12-0.012-0.184c-0.092-3.251-0.186-6.572-0.278-9.97C174.072,119.3,174.001,119.166,174.19,119.016z"/>
	<path d="M177.64,127.291c-0.061-3.576-0.124-7.238-0.19-11.034C177.545,116.359,177.74,126.957,177.64,127.291z"/>
	<path d="M172.374,126.49c-0.062-1.804-0.125-3.63-0.189-5.477c-0.002-0.069-0.011-0.136-0.003-0.211
		c0.005-0.047,0.034-0.107,0.053-0.162c0.026,0.019,0.063,0.024,0.075,0.061c0.014,0.046,0.008,0.117,0.01,0.178
		c0.126,3.704,0.249,7.32,0.367,10.854c0.003,0.092-0.029,0.217-0.044,0.327c-0.028-0.07-0.076-0.12-0.08-0.213
		C172.496,130.085,172.436,128.298,172.374,126.49z"/>
	<path d="M171.897,126.531c-0.061-1.695-0.123-3.41-0.185-5.143c-0.003-0.07-0.012-0.136-0.003-0.212
		c0.005-0.043,0.043-0.102,0.066-0.154c0.021,0.013,0.053,0.012,0.06,0.041c0.012,0.05,0.009,0.117,0.011,0.178
		c0.124,3.471,0.244,6.864,0.362,10.184c0.001,0.033,0.01,0.062,0.002,0.099c-0.017,0.074-0.043,0.151-0.065,0.227
		c-0.021-0.033-0.057-0.05-0.061-0.101c-0.014-0.189-0.017-0.389-0.024-0.585C172.007,129.569,171.952,128.057,171.897,126.531z"/>
	<path d="M176.47,122.486c0.033,1.612,0.066,3.207,0.099,4.785c0.001,0.063,0.008,0.123,0.001,0.192
		c-0.004,0.042-0.031,0.099-0.047,0.15c-0.023-0.014-0.056-0.014-0.066-0.046c-0.012-0.04-0.006-0.106-0.007-0.161
		c-0.068-3.2-0.137-6.468-0.205-9.809c-0.002-0.096,0.029-0.22,0.045-0.331c0.026,0.077,0.072,0.137,0.074,0.234
		C176.403,119.177,176.436,120.841,176.47,122.486z"/>
	<path d="M172.592,125.937c-0.057-1.678-0.114-3.375-0.171-5.09c-0.002-0.069-0.014-0.134-0.003-0.21
		c0.009-0.062,0.045-0.137,0.069-0.206c0.021,0.031,0.048,0.053,0.06,0.095c0.011,0.041,0.006,0.101,0.007,0.153
		c0.114,3.435,0.226,6.795,0.332,10.085c0.003,0.093-0.039,0.228-0.06,0.343c-0.022-0.073-0.061-0.131-0.065-0.223
		C172.702,129.255,172.648,127.605,172.592,125.937z"/>
	<path d="M174.557,124.159c-0.045-1.654-0.09-3.325-0.136-5.015c-0.002-0.068-0.012-0.133-0.001-0.208
		c0.008-0.051,0.045-0.115,0.07-0.173c0.018,0.024,0.046,0.038,0.053,0.074c0.01,0.05,0.006,0.117,0.008,0.176
		c0.09,3.383,0.179,6.694,0.262,9.937c0.002,0.09-0.029,0.212-0.044,0.32c-0.026-0.069-0.073-0.119-0.076-0.21
		C174.645,127.447,174.602,125.811,174.557,124.159z"/>
	<path d="M172.82,125.733c-0.055-1.675-0.111-3.369-0.167-5.082c-0.002-0.069-0.014-0.134-0.003-0.21
		c0.009-0.062,0.046-0.137,0.071-0.206c0.021,0.031,0.048,0.053,0.059,0.095c0.011,0.041,0.006,0.101,0.007,0.153
		c0.111,3.43,0.221,6.784,0.324,10.069c0.003,0.092-0.039,0.227-0.06,0.342c-0.023-0.073-0.062-0.13-0.065-0.221
		C172.928,129.047,172.875,127.399,172.82,125.733z"/>
	<path d="M174.687,130.251c-0.086-0.06-0.151-0.147-0.034-0.417c0.085-0.198,0.285-0.39,0.386-0.375
		c0.137,0.021,0.072,0.234,0.009,0.441c0.148,0.122,0.165,0.288,0.057,0.531c-0.105,0.235-0.341,0.463-0.451,0.435
		C174.533,130.837,174.544,130.639,174.687,130.251z M175.087,130.206c-0.105-0.002-0.171-0.05-0.223,0.009
		c-0.053,0.059-0.093,0.223-0.138,0.342c0.05,0,0.1,0.037,0.15-0.008C174.931,130.498,174.987,130.373,175.087,130.206z"/>
	<path d="M176.093,129.035c0.002-0.12,0.001-0.191,0.006-0.267c0.025-0.376,0.174-0.654,0.418-0.761
		c0.054-0.023,0.117,0.019,0.124,0.087c0.021,0.206,0.024,0.434,0.021,0.664c-0.003,0.215-0.111,0.375-0.247,0.51
		c-0.14,0.139-0.258,0.22-0.289,0.021C176.111,129.194,176.1,129.094,176.093,129.035z M176.234,128.837
		c0.008,0.077,0.001,0.167,0.026,0.199c0.034,0.043,0.093,0.042,0.141,0.06c0.042-0.101,0.113-0.224,0.12-0.298
		c0.015-0.168,0.011-0.328-0.013-0.459c-0.01-0.057-0.084-0.067-0.136-0.032c-0.032,0.021-0.093,0.175-0.114,0.261
		C176.234,128.667,176.24,128.756,176.234,128.837z"/>
	<path d="M167.952,136.762c0,0.078,0.002,0.155,0,0.234c-0.009,0.337-0.08,0.495-0.328,0.729c-0.232,0.219-0.316,0.205-0.346-0.085
		c-0.017-0.166-0.022-0.345-0.02-0.53c0.003-0.228,0.09-0.426,0.285-0.607c0.276-0.257,0.347-0.259,0.388,0.045
		C167.939,136.617,167.945,136.69,167.952,136.762z M167.427,137.239c0.01,0.093,0,0.211,0.035,0.257
		c0.034,0.044,0.112,0.055,0.174,0.005c0.045-0.037,0.117-0.204,0.138-0.297c0.024-0.106,0.018-0.207,0.002-0.285
		c-0.028-0.143,0.041-0.48-0.202-0.241C167.348,136.9,167.456,137.06,167.427,137.239z"/>
	<path d="M173.461,130.905c-0.071,0.218-0.123,0.38-0.183,0.563c0.157-0.095,0.308-0.179,0.325,0.067
		c0.016,0.219-0.073,0.474-0.24,0.664c-0.195,0.222-0.337,0.229-0.374,0.018c-0.038-0.221,0.173-0.951,0.355-1.214
		C173.363,130.974,173.39,130.963,173.461,130.905z M173.285,132.164c0.079-0.2,0.162-0.353,0.158-0.418
		c-0.004-0.066-0.094-0.097-0.147-0.049c-0.049,0.044-0.127,0.226-0.14,0.318C173.146,132.079,173.22,132.095,173.285,132.164z"/>
	<path d="M175.471,130.165c0.062-0.21,0.11-0.371,0.166-0.559c-0.202,0.147-0.344,0.132-0.291-0.212
		c0.022-0.144,0.12-0.395,0.203-0.495c0.094-0.114,0.246-0.191,0.309-0.15C176.036,128.865,175.8,129.787,175.471,130.165z
		 M175.618,128.905c-0.064,0.213-0.124,0.352-0.126,0.44c-0.001,0.057,0.102,0.081,0.126,0.045c0.061-0.09,0.133-0.241,0.144-0.332
		C175.771,128.989,175.693,128.976,175.618,128.905z"/>
	<path d="M170.049,134.718c0.066-0.202,0.117-0.36,0.179-0.549c-0.114,0.086-0.222,0.167-0.387,0.292
		c0.067-0.135,0.095-0.218,0.13-0.258c0.104-0.116,0.211-0.226,0.316-0.316c0.066-0.056,0.131-0.072,0.196-0.106
		c-0.024,0.104-0.044,0.208-0.073,0.314c-0.016,0.059-0.046,0.122-0.078,0.206c0.16-0.011,0.282,0.044,0.207,0.371
		c-0.053,0.236-0.179,0.428-0.328,0.559c-0.105,0.092-0.242,0.282-0.304,0.086c0.084-0.081,0.151-0.147,0.218-0.209
		c0.114-0.106,0.244-0.218,0.259-0.422c0.014-0.198-0.113-0.098-0.217-0.031C170.143,134.671,170.118,134.681,170.049,134.718z"/>
	<path d="M169.275,135.93c0.104-0.093,0.209-0.194,0.312-0.274c0.034-0.027,0.065-0.002,0.097,0
		c-0.027,0.054-0.053,0.127-0.082,0.158c-0.126,0.131-0.255,0.271-0.38,0.364c-0.051,0.038-0.14-0.014-0.129-0.064
		c0.04-0.19,0.105-0.396,0.177-0.596c0.039-0.11,0.119-0.22,0.164-0.332c0.029-0.071,0.05-0.179,0.034-0.209
		c-0.017-0.031-0.082-0.004-0.13,0.026c-0.036,0.022-0.078,0.095-0.117,0.132c-0.06,0.056-0.121,0.102-0.181,0.152
		c0.044-0.103,0.078-0.224,0.134-0.304c0.184-0.266,0.382-0.379,0.448-0.261c0.083,0.147,0.016,0.377-0.127,0.648
		c-0.089,0.169-0.166,0.347-0.248,0.521C169.256,135.904,169.266,135.917,169.275,135.93z"/>
	<path d="M171.659,132.626c0.169-0.16,0.325-0.309,0.481-0.457c0.004,0.032,0.008,0.063,0.012,0.095
		c-0.077,0.087-0.155,0.169-0.229,0.263c-0.042,0.053-0.078,0.127-0.117,0.192c0.036,0.011,0.067,0.049,0.109,0.028
		c0.225-0.113,0.315-0.013,0.257,0.306c-0.039,0.215-0.31,0.654-0.458,0.736c-0.025,0.014-0.065,0.004-0.062-0.016
		c0.007-0.045,0.032-0.116,0.059-0.154c0.065-0.093,0.148-0.163,0.199-0.261c0.052-0.101,0.096-0.241,0.102-0.331
		c0.003-0.053-0.069-0.077-0.119-0.052C171.606,133.118,171.604,133.125,171.659,132.626z"/>
	<path d="M166.343,137.666c-0.082,0.377-0.388,0.368-0.406,0.727c0.059-0.033,0.112-0.057,0.167-0.095
		c0.154-0.106,0.246-0.078,0.272,0.085c0.029,0.177-0.018,0.387-0.171,0.619c-0.081,0.123-0.173,0.241-0.263,0.336
		c-0.049,0.052-0.105,0.048-0.159,0.07c0.039-0.074,0.073-0.153,0.117-0.219c0.051-0.076,0.126-0.133,0.161-0.208
		c0.059-0.127,0.138-0.307,0.128-0.378c-0.009-0.064-0.134-0.064-0.197,0.001c-0.212,0.22-0.236,0.115-0.241-0.091
		c-0.005-0.224,0.045-0.398,0.249-0.56C166.106,137.869,166.214,137.775,166.343,137.666z"/>
	<path d="M171.011,134.014c0.036-0.091,0.07-0.181,0.107-0.271c0.023-0.057,0.046-0.135,0.073-0.162
		c0.025-0.025,0.057-0.002,0.08,0.013c0.033,0.021,0.072,0.039,0.087,0.086c0.013,0.04,0.004,0.115-0.008,0.181
		c-0.008,0.048-0.038,0.108-0.056,0.162c-0.027,0.081-0.053,0.162-0.08,0.243c-0.03-0.028-0.06-0.055-0.089-0.086
		c-0.01-0.011-0.014-0.033-0.02-0.048c-0.014,0.003-0.025-0.001-0.036,0.01c-0.444,0.439-0.319,0.189-0.225-0.255
		c0.035-0.167,0.08-0.34,0.132-0.513c0.025-0.084,0.077-0.173,0.117-0.259c0.022-0.004,0.045-0.007,0.067-0.011
		c-0.065,0.295-0.13,0.591-0.195,0.886C170.982,133.997,170.997,134.006,171.011,134.014z"/>
	<path d="M174.12,130.45c-0.06,0.052-0.152,0.14-0.242,0.206c-0.038,0.028-0.072,0.01-0.108,0.013
		c0.032-0.057,0.062-0.134,0.095-0.168c0.128-0.131,0.257-0.249,0.384-0.371c0.132-0.126,0.14-0.025,0.106,0.13
		c-0.023,0.103-0.074,0.217-0.099,0.321c-0.061,0.253-0.113,0.504-0.173,0.756c-0.018,0.076-0.048,0.158-0.073,0.237
		c-0.025-0.04-0.079-0.062-0.07-0.122C173.99,131.129,174.056,130.798,174.12,130.45z"/>
	<path d="M168.432,136.017c-0.082,0.091-0.161,0.179-0.241,0.267c0.042-0.134,0.07-0.274,0.129-0.402
		c0.052-0.112,0.138-0.211,0.209-0.316c0.025,0.07,0.067,0.123,0.073,0.212c0.017,0.26,0.025,0.53,0.025,0.805
		c0,0.058-0.046,0.158-0.071,0.239c-0.03-0.032-0.081-0.043-0.086-0.1C168.45,136.493,168.443,136.248,168.432,136.017z"/>
</g>
<g>
</g>
<g>
</g>
<g>
</g>
<g>
</g>
<g>
</g>
<g>
</g>
<g>
</g>
<g>
</g>
<g>
</g>
<g>
</g>
<g>
</g>
<g>
</g>
<g>
</g>
<g>
</g>
<g>
</g>
</svg>
