<?xml version="1.0" encoding="utf-8"?>
<!-- Generator: Adobe Illustrator 17.0.0, SVG Export Plug-In . SVG Version: 6.00 Build 0)  -->
<!DOCTYPE svg PUBLIC "-//W3C//DTD SVG 1.1//EN" "http://www.w3.org/Graphics/SVG/1.1/DTD/svg11.dtd">
<svg version="1.1" id="cyborgSvg" xmlns="http://www.w3.org/2000/svg" xmlns:xlink="http://www.w3.org/1999/xlink" x="0px" y="0px"
	 viewBox="-25 -20 220 220" enable-background="new 0 0 200 200" xml:space="preserve">
<path d="M93.827,63.833c1.417-1.052,2.73-2.027,4.141-3.075c1.174,1.268,2.212,2.442,3.313,3.568
	c2.305,2.357,5.168,3.764,8.777,3.752c1.907-0.006,3.329-1.185,3.651-2.878c-2.761,0.115-5.466-0.212-8.073-1.007
	c-2.205-0.672-3.898-1.903-4.47-3.989c-0.147-0.534-0.029-1.193,0.198-1.718c0.22-0.509,0.3-0.85-0.108-1.319
	c-0.48-0.551-0.871-1.178-1.188-1.815c-0.184-0.37-0.364-0.938-0.172-1.22c0.694-1.02,0.21-2.006,0.063-2.99
	c-0.524-3.514,1.511-6.982,5.048-8.508c3.466-1.495,7.612-0.787,10.458,1.88c3.683,3.452,4.461,7.494,2.946,11.953
	c-0.119,0.35-0.262,0.693-0.378,1.044c-0.025,0.076,0.017,0.169,0.071,0.588c2.314-1.758,4.451-3.383,6.592-5.004
	c0.619-0.469,0.994-1.289,2.093-1.088c0.144,0.026,0.38-0.234,0.54-0.389c1.776-1.713,3.678-3.343,5.274-5.178
	c1.164-1.338,1.86-2.981,2.876-4.428c2.295-3.267,4.699-6.476,6.982-9.749c1.612-2.311,3.304-4.626,3.942-7.322
	c0.266-1.125,0.203-2.352,0.039-3.505c-0.311-2.187-1.529-4.01-3.298-5.567c-0.244-0.215-0.282-0.61-0.415-0.921
	c0.412-0.105,0.938-0.403,1.216-0.278c0.835,0.378,1.638,0.858,2.327,1.418c0.568,0.462,0.957,1.095,1.557,1.81
	c0.443-0.682,0.905-1.19,1.123-1.769c0.662-1.761,1.232-3.548,1.833-5.327c0.108-0.321,0.11-0.694,0.304-0.963
	c0.242-0.334,0.634-0.584,0.961-0.87c0.26,0.428,0.762,0.869,0.734,1.282c-0.079,1.15-0.376,2.289-0.593,3.431
	c-0.091,0.481-0.239,0.957-0.282,1.441c-0.02,0.228,0.146,0.469,0.227,0.704c0.265-0.101,0.609-0.14,0.783-0.312
	c0.711-0.707,1.331-1.488,2.062-2.177c0.491-0.463,1.111-1.319,1.842-0.8c0.785,0.557-0.066,1.267-0.475,1.828
	c-0.632,0.867-1.324,1.699-1.994,2.549c0.635,0.591,1.159,0.534,1.761,0.084c1.031-0.769,2.08-1.525,3.179-2.216
	c0.295-0.186,0.796-0.118,1.203-0.167c-0.064,0.387,0.03,0.903-0.219,1.139c-0.965,0.914-2.054,1.726-3.061,2.607
	c-0.191,0.167-0.217,0.48-0.319,0.726c0.325-0.001,0.72,0.104,0.961-0.021c1.104-0.574,2.14-1.248,3.255-1.802
	c0.306-0.152,0.799-0.013,1.207-0.007c-0.136,0.326-0.211,0.688-0.426,0.967c-0.185,0.24-0.515,0.403-0.803,0.572
	c-2.1,1.236-3.845,2.777-5.314,4.587c-1.206,1.486-2.856,2.527-4.635,3.459c-0.589,0.309-1.036,0.989-1.303,1.584
	c-1.041,2.323-1.926,4.7-2.976,7.02c-1.741,3.846-3.517,7.681-5.386,11.48c-0.456,0.926-1.176,1.85-2.039,2.505
	c-2.207,1.674-3.811,3.781-5.675,5.7c-0.676,0.696-1.471,1.32-2.031,2.081c-2.107,2.862-5.201,4.922-7.698,7.462
	c-0.537,0.546-0.944,1.189-1.48,1.876c-1.172-2.592-2.987-4.736-5.381-6.516c-1.074,1.253-1.098,1.666,0.004,2.75
	c2.367,2.328,3.647,5.069,4.211,8.122c0.144,0.782-0.002,1.135-0.933,1.36c-4.68,1.131-9.335,2.341-14.011,3.488
	c-0.963,0.236-1.598,0.657-1.527,1.567c0.206,2.642,0.444,5.282,0.709,7.92c0.086,0.858,0.616,1.218,1.685,1.189
	c3.548-0.094,7.044-0.418,10.443-1.365c0.224-0.063,0.463-0.085,0.999-0.18c-0.341,2.042-0.64,3.959-1.008,5.866
	c-0.043,0.221-0.436,0.46-0.726,0.564c-3.879,1.388-7.878,2.225-12.086,2.518c-5.132,0.358-9.706-1.023-14.196-2.882
	c-0.368-0.152-0.712-0.5-0.889-0.83c-0.561-1.046-1.087-2.111-1.526-3.2c-0.228-0.566-0.593-0.814-1.225-0.95
	c-6.185-1.323-12.21-3.022-17.746-5.87c-3.091-1.59-5.539-3.816-8.042-6.021c-2.045-1.801-4.228-3.531-6.598-4.978
	c-1.259-0.768-2.81-1.663-4.646-1.14c-0.144,0.041-0.548-0.169-0.544-0.254c0.018-0.431,0.068-0.88,0.241-1.276
	c0.063-0.145,0.57-0.294,0.755-0.218c1.374,0.563,2.862,1.018,4.047,1.813c4.095,2.75,8.019,5.696,12.126,8.43
	c3.81,2.537,8.055,4.429,12.64,5.646c2.469,0.655,5.005,1.118,7.512,1.663c0.124,0.027,0.261,0.003,0.476,0.003
	c0-1.618,0-3.212,0-5.006c2.043,0.968,3.883,1.865,5.748,2.718c3.483,1.593,9.252-0.581,10.313-3.868
	c1.139-3.529-0.836-6.948-4.724-8.021c0,0.58,0.011,1.137-0.002,1.693c-0.047,1.985-0.704,3.729-2.631,4.932
	c-2.564,1.6-5.293,1.302-7.127-0.934c-2.595-3.163-5.788-5.717-9.466-7.87c-1.346-0.788-2.696-1.691-3.703-2.784
	c-2.252-2.445-5.131-4.378-7.229-6.916c-2.119-2.563-4.045-5.249-6.055-7.882c-0.29-0.38-0.546-0.783-0.876-1.134
	c-0.469-0.5-0.545-0.928,0.045-1.407c0.612-0.497,0.489-1.051-0.043-1.523c-0.534-0.474-1.225-0.556-1.766-0.091
	c-0.497,0.427-0.886,0.371-1.342,0.061c-1.202-0.815-2.524-1.531-3.565-2.483c-1.792-1.639-3.637-3.176-5.956-4.227
	c-0.521-0.236-1.033-0.522-1.458-0.871c-0.214-0.176-0.223-0.544-0.325-0.825c0.337-0.059,0.744-0.254,1-0.154
	c1.2,0.472,2.359,1.025,3.533,1.551c0.185,0.083,0.362,0.235,0.551,0.245c0.293,0.016,0.592-0.063,0.888-0.102
	c-0.072-0.252-0.049-0.607-0.233-0.74c-1.098-0.792-2.267-1.508-3.362-2.303c-0.474-0.344-1.28-0.76-0.749-1.398
	c0.538-0.646,1.213-0.056,1.734,0.217c1.071,0.562,2.109,1.176,3.124,1.814c0.698,0.439,1.312,0.489,2.047-0.176
	c-0.57-0.607-1.155-1.225-1.733-1.848c-0.503-0.543-1.068-1.057-1.464-1.656c-0.182-0.275-0.025-0.723-0.022-1.093
	c0.387,0.058,0.879,0.003,1.143,0.193c0.962,0.693,1.83,1.486,2.769,2.205c0.456,0.349,0.785,1.161,1.537,0.725
	c0.242-0.14,0.061-0.972-0.072-1.457c-0.363-1.333-0.85-2.64-1.188-3.977c-0.119-0.47-0.087-1.047,0.123-1.484
	c0.289-0.604,0.869-0.591,1.233-0.008c0.313,0.503,0.49,1.07,0.739,1.605c0.853,1.831,1.671,3.676,2.59,5.482
	c0.298,0.584,0.868,1.061,1.424,1.718c0.557-0.795,0.925-1.492,1.471-2.055c0.613-0.632,1.329-1.22,2.117-1.67
	c0.317-0.181,0.942,0.052,1.426,0.097c-0.09,0.351-0.142,0.715-0.283,1.049c-0.093,0.22-0.3,0.408-0.479,0.595
	c-2.145,2.24-2.475,4.936-2.574,7.786c-0.134,0.047-0.429,0.069-0.549,0.208c-0.328,0.382-0.813,0.819-0.798,1.222
	c0.014,0.354,0.586,0.723,0.973,1.026c0.408,0.319,0.954,0.511,1.326,0.854c2.867,2.646,5.707,5.316,8.557,7.977
	c0.119,0.111,0.259,0.203,0.384,0.309c1.471,1.25,2.807,2.665,4.451,3.704c1.621,1.025,3.516,1.744,5.361,2.459
	c1.381,0.536,2.894,0.802,4.308,1.281c1.446,0.489,2.85,1.078,4.256,1.653C93.117,63.351,93.465,63.619,93.827,63.833z
	 M63.589,45.774c-0.984-0.246-1.627-0.884-1.526-1.7c-0.346,0-0.692,0-1.063,0C61.586,45.341,62.815,46.126,63.589,45.774z"/>
<path d="M64.67,47.704c-0.47-0.614-0.824-0.991-1.024-1.415c-0.036-0.077,0.666-0.547,0.837-0.487
	c0.404,0.142,0.889,0.463,0.967,0.773C65.516,46.836,65.054,47.183,64.67,47.704z"/>
<path fill="#FFFFFF" d="M67.729,45.774c-0.846,0.352-2.188-0.433-2.827-1.7c0.405,0,0.783,0,1.161,0
	C65.953,44.89,66.654,45.527,67.729,45.774z"/>
<path fill="#2AA4D5" d="M87.231,86.033c-6.253-1.337-12.344-3.055-17.94-5.934c-3.125-1.608-5.599-3.858-8.13-6.087
	c-2.068-1.821-4.274-3.57-6.671-5.032c-1.273-0.777-2.567-1.546-4.424-1.018c-0.146,0.042-0.827-0.306-0.823-0.391
	c0.018-0.435,0.068-0.889,0.244-1.29c0.064-0.146,0.576-0.297,0.764-0.22c1.389,0.569,2.893,1.029,4.091,1.833
	c4.139,2.78,8.106,5.758,12.258,8.522c3.852,2.565,8.143,4.477,12.778,5.708c2.496,0.663,5.059,1.13,7.594,1.681
	c0.125,0.027,0.264,0.003,0.481,0.003c0-1.636,0-3.247,0-5.06"/>
<path d="M84.842,91.456c3.749,0.355,7.137,1.697,10.666,2.653c3.49,0.945,6.994,1.801,10.661,1.934
	c3.279,0.119,6.386-0.388,9.287-1.894c0.989-0.514,2.303-0.561,3.482-0.76c0.189-0.032,0.543,0.221,0.662,0.417
	c0.713,1.168,0.336,2.456-1.153,3.203c-1.036,0.52-1.375,1.141-1.482,2.143c-0.089,0.838-0.525,1.688-0.999,2.439
	c-0.308,0.488-0.373,0.801,0.036,1.203c1.086,1.068,2.14,2.162,3.249,3.211c4.55,4.307,7.924,9.236,10.156,14.77
	c0.671,1.664,1.293,3.344,1.875,5.034c0.116,0.336,0.038,0.781-0.111,1.123c-1.483,3.405-4.579,5.235-8.271,6.467
	c-0.323,0.108-0.657,0.194-0.991,0.277c-3.562,0.884-4.16,0.705-6.304-1.888c-1.326-1.604-2.758-3.15-3.945-4.83
	c-1.734-2.453-3.39-4.958-4.887-7.527c-0.963-1.653-2.07-2.975-4.198-3.532c-0.862-0.226-1.462-0.087-1.867,0.507
	c-0.459,0.672-0.824,1.406-1.129,2.145c-1.679,4.063-3.285,8.15-5.013,12.196c-0.469,1.098-1.241,2.104-1.954,3.109
	c-0.164,0.231-0.725,0.462-0.988,0.385c-2.558-0.744-5.168-1.405-7.609-2.385c-2.508-1.008-4.043-2.905-4.964-5.274
	c-0.132,1.173-0.294,2.345-0.371,3.521c-0.014,0.22,0.294,0.469,0.482,0.685c2.542,2.918,5.962,4.48,10.044,5.021
	c0.358,0.047,0.712,0.115,1.081,0.176c-1.627,1.852-3.718,2.836-6.22,3.12c-0.588,0.067-1.347,0.078-1.795-0.187
	c-3.7-2.188-8.046-3.131-11.965-4.888c-3.304-1.481-6.628-2.927-9.948-4.379c-0.402-0.176-0.834-0.301-1.258-0.433
	c-0.826-0.257-1.774-0.299-2.229-1.154c-0.097-0.182-0.495-0.241-0.859-0.229c0.229,0.219,0.458,0.438,0.803,0.769
	c-1.216,0.058-2.262,0.108-3.344,0.16c-0.179-1.032-0.345-1.985-0.529-3.046c-1.905,0.303-0.832,1.83-1.57,2.464
	c-1.319-2.018-0.91-3.18,2.357-6.644c-0.741-0.398-1.502-0.807-2.371-1.273c-1.858,2.561-3.78,5.223-2.618,8.745
	c-0.103,0.054-0.407,0.117-0.49,0.271c-0.271,0.502-0.536,1.029-0.621,1.568c-0.018,0.114,0.721,0.383,1.141,0.471
	c0.523,0.109,1.077,0.105,1.587,0.147c-0.433,0.722-1.875,1.316-3.161,0.943c-1.107-0.32-2.224-0.868-3.071-1.565
	c-1.306-1.074-1.779-2.59-1.981-4.128c-0.155-1.183,0.252-2.221,1.28-3.054c1.198-0.972,2.326-2.013,3.56-2.948
	c1.45-1.098,2.822-2.218,3.883-3.656c0.963-1.306,2.422-2.079,4.273-2.119c1.92-0.042,2.708,0.632,2.791,2.337
	c0.031,0.636,0.017,1.302,0.232,1.896c0.205,0.568,0.724,1.042,1.03,1.589c0.7,1.254,2.005,1.524,3.389,1.747
	c0.255,0.041,0.48,0.376,0.659,0.61c0.695,0.914,1.392,0.95,2.274,0.165c0.25-0.222,0.668-0.38,1.027-0.411
	c1.202-0.103,2.436-0.022,3.614-0.218c2.582-0.428,4.695,0.438,6.698,1.674c0.758,0.468,1.443,1.027,2.294,1.64
	c0.141-0.597,0.246-1.088,0.375-1.573c0.895-3.383,1.874-6.75,2.662-10.151c0.469-2.026,0.556-4.118,0.963-6.158
	c0.725-3.635,2.586-6.795,5.446-9.504c0.714-0.676,1.363-1.406,2.138-2.21c1.15,0.614,2.43,1.388,3.798,2.012
	c5.067,2.315,10.278,4.066,16.131,2.596c1.885-0.473,3.546-1.337,4.935-2.571c-5.975,1.994-11.879,1.637-17.749-0.189
	c-2.704-0.841-5.394-1.727-8.048-2.682c-3.851-1.385-7.918-1.924-11.987-2.407 M62.026,125.436c0.014-0.658-0.625-1.286-1.352-1.23
	c-0.769,0.06-1.254,0.491-1.345,1.166c-0.08,0.588,0.594,1.204,1.256,1.223C61.357,126.619,62.013,126.091,62.026,125.436z
	 M60.055,127.405c-0.594-1.117-2.113-1.475-3.21-0.845c-0.274-0.138-0.55-0.277-0.826-0.416c-0.056,0.056-0.113,0.111-0.169,0.167
	c0.797,0.81,1.594,1.621,2.391,2.431c0.084-0.058,0.168-0.115,0.252-0.173c-0.325-0.37-0.705-0.714-0.954-1.12
	c-0.132-0.216-0.135-0.588-0.004-0.796c0.078-0.124,0.573-0.16,0.803-0.074C58.903,126.789,59.423,127.093,60.055,127.405z
	 M61.091,122.858c0.729,1.438,1.779,2.115,2.595,1.724c-1.262-0.367-1.659-0.824-1.533-1.781
	C61.825,122.819,61.499,122.836,61.091,122.858z"/>
<path d="M136.844,173.92c1.485,1.275,3.626,1.11,5.4,1.773c-1.311,0.971-4.222,0.555-9.245-1.326
	c0.359,0.868,0.689,1.687,1.042,2.499c0.057,0.13,0.192,0.272,0.333,0.331c2.1,0.889,4.224,1.804,6.607,1.775
	c1.18-0.014,2.349-0.425,3.534-0.594c0.374-0.053,0.869-0.006,1.166,0.175c1.107,0.678,2.12,1.476,3.237,2.14
	c0.777,0.462,1.683,0.676,2.927,0.329c-0.746-0.815-1.377-1.546-2.06-2.238c-0.677-0.685-1.408-1.33-2.115-1.993
	c0.059-0.076,0.119-0.153,0.178-0.229c0.981,0.491,2.012,0.919,2.932,1.487c1.821,1.124,3.533,2.333,4.326,4.301
	c0.726,1.803,0.172,3.191-1.795,4.006c-1.41,0.585-2.886,0.678-4.364,0.282c-3.319-0.89-6.458-2.055-8.72-4.538
	c-1.098-1.205-2.748-1.417-4.322-1.813c-1.411-0.355-2.879-0.754-4.094-1.443c-1.797-1.019-2.082-2.41-1.306-4.163
	c0.339-0.765,0.653-1.546,0.873-2.342c0.116-0.419,0.092-0.903-0.02-1.327c-0.184-0.698-0.393-1.346,0.187-2
	c0.139-0.157,0.079-0.526-0.016-0.758c-1.935-4.764-3.807-9.555-6.919-13.864c-1.67-2.312-1.827-4.887-1.713-7.499
	c0.078-1.797,0.272-3.591,0.416-5.386c0.084-1.049-1.274-2.777-2.31-3.311c-0.665-0.343-1.111-1.013-1.897-1.768
	c5.683-0.181,9.527-2.723,12.643-6.13c0.803,2.147,1.72,4.337,2.415,6.581c0.289,0.933,0.106,1.979,0.14,2.974
	c0.032,0.935-0.117,1.908,0.13,2.797c1.672,6.026,2.623,12.151,3.491,18.294c0.492,3.479,1.138,6.935,2.852,10.161
	c0.595,1.121-0.285,2.39-1.69,2.501c-0.717,0.056-1.445,0.01-2.167,0.01C136.894,173.715,136.869,173.817,136.844,173.92z"/>
<path d="M67.724,122.635c0.575,0.025,1.149,0.049,1.724,0.074c0.061,0.083,0.122,0.166,0.182,0.249
	c-0.325,0.182-0.669,0.527-0.969,0.504c-0.388-0.03-0.74-0.355-1.108-0.553C67.61,122.818,67.667,122.727,67.724,122.635z"/>
<path fill="#FFFFFF" d="M66.022,125.436c-0.015,0.655-0.731,1.183-1.573,1.16c-0.723-0.02-1.459-0.635-1.372-1.223
	c0.1-0.676,0.629-1.107,1.469-1.166C65.34,124.15,66.037,124.778,66.022,125.436z M66.074,125.376
	c-0.731-0.36-1.148-0.715-1.582-0.728c-0.289-0.009-0.902,0.539-0.839,0.714c0.124,0.344,0.575,0.778,0.972,0.841
	C64.937,126.252,65.372,125.8,66.074,125.376z"/>
<path fill="#FFFFFF" d="M63.87,127.405c-0.691-0.313-1.259-0.616-1.876-0.826c-0.251-0.086-0.791-0.05-0.877,0.074
	c-0.143,0.208-0.139,0.58,0.005,0.796c0.271,0.406,0.686,0.75,1.041,1.12c-0.092,0.058-0.183,0.115-0.275,0.173
	c-0.87-0.81-1.74-1.621-2.61-2.431c0.061-0.056,0.123-0.111,0.184-0.167c0.301,0.139,0.603,0.278,0.902,0.416
	C61.563,125.931,63.221,126.288,63.87,127.405z"/>
<path fill="#FFFFFF" d="M65.001,122.858c0.445-0.022,0.801-0.039,1.159-0.057c-0.137,0.957,0.296,1.413,1.674,1.781
	C66.944,124.973,65.798,124.297,65.001,122.858z"/>
<path d="M66.074,125.376c-0.702,0.424-1.137,0.876-1.449,0.827c-0.397-0.063-0.848-0.496-0.972-0.841
	c-0.063-0.175,0.55-0.723,0.839-0.714C64.926,124.662,65.343,125.016,66.074,125.376z"/>
<polygon points="56.734,128.763 62.882,129.217 71.006,122.873 64.778,122.635 "/>
<ellipse cx="59.65" cy="126.327" rx="1.149" ry="0.58"/>
<g>
	<path fill="#FFFEFD" d="M74.926,28.201c0-1.65,1.35-3,3-3h61.561c1.65,0,3,1.35,3,3v88.677c0,1.65-1.35,3-3,3H77.926
		c-1.65,0-3-1.35-3-3V28.201z"/>
	<path fill="none" stroke="#000000" stroke-width="1.5" stroke-miterlimit="10" d="M74.926,28.201c0-1.65,1.35-3,3-3h61.561
		c1.65,0,3,1.35,3,3v88.677c0,1.65-1.35,3-3,3H77.926c-1.65,0-3-1.35-3-3V28.201z"/>
</g>
<rect x="79.893" y="39.072" fill="#F9F8F7" stroke="#000000" stroke-width="1.5" stroke-miterlimit="10" width="57.957" height="67.815"/>
<ellipse cx="109.169" cy="29.957" rx="1.608" ry="1.069"/>
<g>
	<path d="M103.479,33.576c0,0,0.166-0.053,0.457-0.146c0.145-0.04,0.322-0.089,0.525-0.145c0.101-0.026,0.209-0.054,0.323-0.083
		c0.114-0.028,0.233,0.009,0.358-0.002c0.997,0,2.327,0,3.657,0c1.33,0,2.659,0,3.657,0c0.249-0.033,0.478,0.031,0.68,0.094
		c0.203,0.055,0.379,0.102,0.525,0.141c0.291,0.081,0.457,0.14,0.457,0.14s-0.166,0.059-0.457,0.14
		c-0.145,0.039-0.322,0.087-0.525,0.141c-0.203,0.063-0.431,0.126-0.68,0.094c-0.997,0-2.327,0-3.657,0c-1.33,0-2.66,0-3.657,0
		c-0.125-0.011-0.244,0.026-0.358-0.002c-0.114-0.029-0.221-0.057-0.323-0.083c-0.203-0.056-0.379-0.105-0.525-0.145
		C103.645,33.629,103.479,33.576,103.479,33.576z"/>
</g>
<ellipse cx="99.706" cy="33.576" rx="0.928" ry="0.617"/>
<ellipse fill="none" stroke="#000000" stroke-miterlimit="10" cx="110.493" cy="113.899" rx="4.42" ry="3.946"/>
<path fill="red" d="M122.954,100.061c0,0,29.304,4.993,19.644,5.46c-9.66,0.466-27.13-7.486-29.796-8.98
	c-3.868-2.168-8.192-3.694-12.533-5.173c-3.417-1.165-6.947-2.083-10.632-2.267c-3.408-0.17-6.463,0.347-8.542,1.998
	c-2.277,1.807-4.223,3.822-6.271,5.769c-1.785,1.698-3.871,3.12-7.073,3.569c-2.13,0.298-4.336,0.098-6.536-0.335
	c-5.121-1.007-9.874-2.717-14.185-5.072c-2.404-1.314-3.337-2.628-5.238-3.828c-1.424-0.899-2.676-1.43-4.316-2.053
	c-2.324-0.882-4.81-1.534-7.266-2.175c-1.23-0.321-2.551-0.481-3.822-0.572c-2.83-0.201-4.449,0.701-4.449,2.706
	c0,3.258,1.637,3.829,2.225,5.502c0.244,0.695,0.769,1.433-0.053,2.088c-0.404-0.162-0.866-0.263-1.154-0.474
	c-2.914-2.141-5.151-5.103-4.304-7.947c0.346-1.163,0.676-1.686,1.761-2.619c1.817-1.564,4.465-1.806,7.353-1.428
	c5.041,0.659,11.475,2.865,15.163,5.081c1.012,0.662,3.167,2.354,4.225,2.955c1.223,0.696,1.777,1.331,4.655,2.456
	c3.194,1.249,6.435,2.346,9.929,2.946c5.061,0.869,8.564-0.317,11.149-2.883c1.377-1.367,2.769-2.731,4.294-4.013
	c3.55-2.983,8.572-3.741,14.42-3.022c5.802,0.713,11.327,2.338,16.824,4.099c4.023,1.289,7.394,3.298,11.02,5.026
	c3.585,1.708,7.21,3.346,11.2,4.43c3.568,0.969,7.1,1.805,10.673,1.331c1.219-0.162,2.683-0.282,4.028-0.133
	c0.216,0.024,0.539,0.327,0.619,0.521c0.48,1.154-0.267,2.119-2.095,2.341 M141.175,86.073"/>
<path fill="#2AA4D5" d="M145.628,104.684c0,0,5.991-3.216,0.479-7.548c-3.848-3.024-3.62-3.351-3.62-3.351v1.142
	c0,0,4.187,2.687,3.62,4.831c0,0-1.054,2.758-3.773,2.825"/>
<g>
</g>
<g>
</g>
<g>
</g>
<g>
</g>
<g>
</g>
<g>
</g>
<g>
</g>
<g>
</g>
<g>
</g>
<g>
</g>
<g>
</g>
<g>
</g>
<g>
</g>
<g>
</g>
<g>
</g>
</svg>
