<?xml version="1.0" encoding="utf-8"?>
<!-- Generator: Adobe Illustrator 17.0.0, SVG Export Plug-In . SVG Version: 6.00 Build 0)  -->
<!DOCTYPE svg PUBLIC "-//W3C//DTD SVG 1.1//EN" "http://www.w3.org/Graphics/SVG/1.1/DTD/svg11.dtd">
<svg version="1.1" id="headEyes" xmlns="http://www.w3.org/2000/svg" xmlns:xlink="http://www.w3.org/1999/xlink" x="0px" y="0px"
	 viewBox="-25 -20 220 220" enable-background="new 0 0 200 200" xml:space="preserve">
<g>
	<g>
		<circle cx="130.078" cy="108.181" r="5.374" fill="orange" /> <!-- Right eye -->
		<path fill="none" stroke="#000000" stroke-width="0.75" stroke-miterlimit="10" d="M113.439,109.052
			c0,0,12.084-14.423,32.96-2.812C146.399,106.239,132.767,126.666,113.439,109.052z"/>
	</g>
	<circle fill="green" cx="123.188" cy="83.651" r="5.076"/> <!-- GREEN eye gruop -->
	<path fill="none" stroke="#000000" stroke-width="0.75" stroke-miterlimit="10" d="M108.169,78.948c0,0,15.444-8.795,30.108,8.353
		C138.277,87.301,119.487,100.902,108.169,78.948z"/>
	<g>
		<circle cx="63.074" cy="106.712" r="5.374" fill="red"/> <!-- Left eye -->
		<path fill="none" stroke="#000000" stroke-width="0.75" stroke-miterlimit="10" d="M46.613,104.124
			c0,0,14.804-11.614,32.829,4.062C79.443,108.185,61.883,125.353,46.613,104.124z"/>
	</g>

	<circle fill="#0BAEFF" cx="90.309" cy="88.834" r="4.927" /> <!-- Blue eye gruop -->
	<path fill="none" stroke="#000000" stroke-width="0.75" stroke-miterlimit="10" d="M75.032,88.761c0,0,11.815-12.57,30.316-0.851
		C105.349,87.909,91.803,105.894,75.032,88.761z"/>
	<circle fill="#FD17FF" cx="73.994" cy="76.921" r="4.241"/> <!-- Pink eye gruop -->
	<path fill="none" stroke="#000000" stroke-width="0.75" stroke-miterlimit="10" d="M61.546,81.163c0,0,6.071-13.552,24.421-9.23
		C85.968,71.933,80.013,90.377,61.546,81.163z"/>  <!-- Yellow eye gruop -->
	<circle fill="yellow" cx="102.289" cy="70.902" r="3.369"/>
	<path fill="none" stroke="#000000" stroke-width="0.75" stroke-miterlimit="10" d="M91.886,69.98c0,0,8.767-7.889,20.702,1.151
		C112.588,71.131,102.333,82.61,91.886,69.98z"/>
	<path fill="none" stroke="#000000" stroke-width="3" stroke-miterlimit="10" d="M110.293,107.186c0,0,18.026-16.705,37.478-3.282"
		/>
	<path fill="none" stroke="#000000" stroke-width="3" stroke-miterlimit="10" d="M79.736,106.478c0,0-12.047-18.01-32.829-4.981"/>
	<path fill="none" stroke="#000000" stroke-miterlimit="10" d="M77.34,125.393c0,0-6.487,7.418,3.892,9.962
		c0,0,10.496,10.237,21.921,2.179c0,0,8.581,0.32,6.818-8.524"/>
	<path fill="none" stroke="#000000" stroke-miterlimit="10" d="M40.958,119.632c0,0,18.083,63.216,50.285,65.341
		c0,0,44.242,9.679,63.727-64.894l1.338,1.625c8.942,8.849,16.298-4.544,16.298-4.544c2.398-4.395,4.903-11.939,4.903-11.939
		c7.988-5.499,7.355-18.442,7.355-18.442c0.599-28.113-22.771-8.655-22.771-8.655c1.606-69.746-57.64-65.159-57.64-65.159
		S44.916,7.381,38.225,78.082c0,0-24.271-12.448-23.057,10.412c0,0,1.943,12.187,11.171,15.823c0,0,1.457,1.77,1.457,4.039
		C27.796,108.356,26.934,125.841,40.958,119.632z"/>
	<g>
		<path fill="none" stroke="#000000" stroke-miterlimit="10" d="M172.684,89.466c0,0-15.727,0.644-12.764,22.07"/>
	</g>
	<path d="M159.574,105.221c0,0,8.572-2.585,8.562-14.546C168.135,90.675,159.455,92.979,159.574,105.221z"/>
	<g>
		<path fill="none" stroke="#000000" stroke-miterlimit="10" d="M35.042,109.416c0,0,10.665-11.577-6.58-24.632"/>
	</g>
	<path d="M33.173,89.005c0,0-4.233,7.889,4.231,16.34C37.404,105.345,41.913,97.578,33.173,89.005z"/>
	<path opacity="0.2" fill="#D03A00" stroke="#000000" stroke-miterlimit="10" d="M73.249,150.015c0,0,19.204,24.327,44.124,0
		C117.373,150.015,93.205,198.866,73.249,150.015z"/>
	<path fill="none" stroke="#000000" stroke-miterlimit="10" d="M73.249,150.015c0,0,18.413,36.193,44.124,0"/>
</g>
<g>
</g>
<g>
</g>
<g>
</g>
<g>
</g>
<g>
</g>
<g>
</g>
<g>
</g>
<g>
</g>
<g>
</g>
<g>
</g>
<g>
</g>
<g>
</g>
<g>
</g>
<g>
</g>
<g>
</g>
</svg>
