<?xml version="1.0" encoding="utf-8"?>
<!-- Generator: Adobe Illustrator 17.0.0, SVG Export Plug-In . SVG Version: 6.00 Build 0)  -->
<!DOCTYPE svg PUBLIC "-//W3C//DTD SVG 1.1//EN" "http://www.w3.org/Graphics/SVG/1.1/DTD/svg11.dtd">
<svg version="1.1" id="tortuga" xmlns="http://www.w3.org/2000/svg" xmlns:xlink="http://www.w3.org/1999/xlink" x="0px" y="0px"
	 viewBox="-25 -20 220 220" enable-background="new 0 0 200 200" xml:space="preserve">
<g>
	<g>
		<path stroke="#FFFFFF" stroke-miterlimit="10" d="M121.055,145.961c-0.093,2.497-0.115,4.998-0.3,7.488
			c-0.196,2.633-2.249,3.655-4.588,2.312c-2.4-1.378-4.708-2.919-7.128-4.259c-2.975-1.648-3.444-1.433-4.3,1.85
			c-0.309,1.184-0.35,2.438-0.513,3.66l0.006-0.097c-0.353,0.092-0.826,0.379-1.041,0.247c-3.525-2.173-7.033-4.376-10.5-6.64
			c-0.512-0.334-0.799-1.014-1.209-1.557c2.379-2.174,4.654-4.253,7.115-6.501c2.201,2.409,4.345,4.754,6.488,7.1
			c0.188-0.163,0.376-0.325,0.564-0.488c-1.745-1.997-3.307-4.203-5.291-5.923c-1.577-1.367-1.7-2.467-1.068-4.333
			c1.334-3.939,2.339-7.99,3.52-12.139c5.869-0.458,11.831-0.923,17.96-1.401c0.153,4.438,0.298,8.635,0.446,12.817
			C121.164,140.708,121.11,143.335,121.055,145.961z"/>
		<path stroke="#FFFFFF" stroke-miterlimit="10" d="M121.055,145.961c0.055-2.626,0.109-5.252,0.16-7.864
			c0.317-4.2,0.639-8.414,0.988-13.004c1.54-0.106,3.62-0.302,5.704-0.345c0.375-0.008,0.923,0.538,1.118,0.956
			c1.225,2.621,2.835,5.175,3.456,7.944c1.578,7.029,2.767,14.148,3.978,21.254c0.521,3.057-0.178,3.963-3.232,4.355
			c-3.031,0.389-6.097,0.505-9.037,0.731c0.199,1.41,0.458,3.246,0.718,5.081c0.112-0.008,0.224-0.017,0.337-0.025
			c-0.016-1.426-0.033-2.852-0.053-4.658c1.354,0.116,2.67,0.1,3.914,0.392c0.555,0.13,1.171,0.795,1.402,1.363
			c0.797,1.956,1.438,3.976,2.138,5.971l-0.018-0.058c-5.163,0.873-9.767-1.149-14.404-2.878c-0.551-0.206-1.076-1.152-1.16-1.812
			c-0.259-2.027-0.297-4.083-0.451-6.625c2.087,0.26,3.964,0.494,5.342,0.666c-0.138-2.045-0.304-4.694-0.502-7.342
			C121.35,148.694,121.189,147.328,121.055,145.961z"/>
		<path stroke="#FFFFFF" stroke-miterlimit="10" d="M104.21,115.176c-4.179-0.495-7.984-0.946-11.789-1.398
			c-0.855-0.102-1.716-0.333-2.563-0.291c-3.045,0.149-4.901-1.236-6.127-4.009c-1.754-3.966-3.792-7.806-5.671-11.719
			c-1.025-2.134-1.056-4.096,0.927-5.843c1.885-1.662,3.588-3.53,5.457-5.212c0.382-0.344,1.3-0.554,1.707-0.335
			c4.537,2.44,9.047,4.936,13.498,7.529c0.727,0.423,1.489,1.322,1.638,2.114c1.045,5.526,1.945,11.08,2.858,16.63
			C104.261,113.351,104.188,114.09,104.21,115.176z"/>
		<path stroke="#FFFFFF" stroke-miterlimit="10" d="M68.519,94.604c3.129-2.776,3.271-2.857,6.352,0.096
			c1.285,1.231,2.441,2.766,3.158,4.384c1.437,3.244,2.654,6.603,3.675,10.001c0.235,0.781-0.507,2.069-1.152,2.82
			c-0.388,0.451-1.455,0.363-2.225,0.418c-0.289,0.02-0.602-0.365-0.899-0.357c-6.156,0.179-8.765-5.235-12.863-8.263
			c-0.553-0.409-0.728-2.088-0.366-2.834c1.1-2.27,2.549-4.371,3.862-6.538C68.213,94.422,68.366,94.513,68.519,94.604z"/>
		<path stroke="#FFFFFF" stroke-miterlimit="10" d="M122.548,115.394c-6.225-0.043-12.057-0.083-17.936-0.124
			c0.564-7.569-1.808-14.42-2.937-22.068C110.435,99.256,116.723,106.769,122.548,115.394z"/>
		<path stroke="#FFFFFF" stroke-miterlimit="10" d="M78.94,91.615c-3.093,2.713-4.101,2.894-7.143,0.13
			c-2.206-2.004-4.379-4.16-3.991-7.749c0.159-1.476-0.482-3.135-1.088-4.571c-0.651-1.54-0.027-2.155,1.276-2.356
			c1.363-0.211,2.783-0.384,4.141-0.235c4.567,0.502,8.678,2.134,12.156,5.245c1.155,1.033,1.399,1.978,0.309,3.181
			C82.696,87.363,80.825,89.495,78.94,91.615z"/>
		<path stroke="#FFFFFF" stroke-miterlimit="10" d="M90.985,130.917c2.235,3.515,4.559,7.172,7.011,11.027
			c-1.66,2.316-4.094,3.846-6.587,5.273c-0.288,0.165-1.104-0.082-1.327-0.389c-2.355-3.256-4.772-6.48-6.891-9.888
			c-1.144-1.839,0.496-3.831,2.656-4.148C87.485,132.552,89.027,131.661,90.985,130.917z"/>
		<path stroke="#FFFFFF" stroke-miterlimit="10" d="M62.116,101.644c-0.569-1.202-1.654-2.553-1.806-4.002
			c-0.404-3.848-0.443-7.737-0.55-11.612c-0.041-1.485,1.082-1.64,2.222-1.549c3.299,0.263,7.022,3.495,7.694,6.749
			c0.083,0.404-0.219,0.997-0.521,1.348c-0.686,0.799-1.589,1.425-2.216,2.261C65.353,96.959,63.869,99.155,62.116,101.644z"/>
		<path stroke="#FFFFFF" stroke-miterlimit="10" d="M101.634,127.168c-1.15,4.477-2.262,8.808-3.375,13.14
			c-0.162,0.051-0.325,0.101-0.487,0.152c-2.72-4.567-5.44-9.134-8.16-13.701c0.097-0.226,0.194-0.453,0.291-0.679
			C93.732,126.435,97.561,126.79,101.634,127.168z"/>
		<path stroke="#FFFFFF" stroke-miterlimit="10" d="M104.232,156.915l-0.006,0.097c0.598-1.874,1.195-3.748,1.922-6.025
			c1.732,0.904,3.252,1.612,4.687,2.461c5.359,3.17,5.354,3.198,5.143,9.987c-1.206-0.461-2.363-0.836-3.462-1.338
			c-2.343-1.069-4.692-2.135-6.956-3.356C104.963,158.419,104.667,157.539,104.232,156.915z"/>
		<path stroke="#FFFFFF" stroke-miterlimit="10" d="M82.239,134.725c-0.939-3.666-1.725-6.739-2.611-10.197
			c2.853,0.462,5.502,0.516,7.821,1.416c1.257,0.488,1.983,2.4,2.861,3.728c0.086,0.131-0.372,0.846-0.706,0.988
			c-1.017,0.432-2.117,1.05-3.147,0.986C84.378,131.516,83.094,132.31,82.239,134.725z"/>
		<path stroke="#FFFFFF" stroke-miterlimit="10" d="M66.969,85.21c-2.229-0.7-4.281-1.344-6.691-2.101
			c-0.319-1.041-0.814-2.66-1.375-4.492c2.158-0.564,4.32-1.643,6.207,0.007C67.063,80.332,67.367,82.755,66.969,85.21z"/>
		<path stroke="#FFFFFF" stroke-miterlimit="10" d="M101.138,93.605c-5.179-2.814-10.263-5.575-15.473-8.406
			c0.171-0.844,0.303-1.713,1.688-1.296c5.335,1.608,9.849,4.499,13.574,8.629c0.167,0.185,0.257,0.453,0.333,0.698
			C101.29,93.329,101.186,93.469,101.138,93.605z"/>
		<path stroke="#FFFFFF" stroke-miterlimit="10" d="M132.646,168.113c-0.499-2.416-0.998-4.833-1.572-7.615
			c0.765-0.189,1.796-0.604,2.837-0.633c0.502-0.014,1.344,0.606,1.483,1.096c0.572,2.007,0.932,4.073,1.414,6.317
			c-1.505,0.272-2.844,0.514-4.181,0.767C132.628,168.055,132.646,168.113,132.646,168.113z"/>
		<path stroke="#FFFFFF" stroke-miterlimit="10" d="M137.062,157.952c0.236,2.668,1.334,6.328,1.563,8.921
			C137.23,165.029,133.46,161.308,137.062,157.952z"/>
		<path stroke="#FFFFFF" stroke-miterlimit="10" d="M84.769,112.493c-1.358,0.06-2.212,0.098-3.067,0.136
			c-0.061-0.137-0.122-0.273-0.183-0.41c0.609-0.556,1.218-1.113,1.827-1.669C83.733,111.077,84.119,111.604,84.769,112.493z"/>
	</g>
	<path fill="#FFFFFF" stroke="#0A0A0A" stroke-miterlimit="10" d="M28.984,62.646c0,0-3.323-17.054,21.28-46.489
		c0,0,5.061-6.172,4.045-1.255c0,0-3.936,24.067-2.021,33.125c-0.142-1.038,2.043,18.351,1.005,29.978L28.984,62.646z"/>
	<path fill="#FFFFFF" stroke="#0A0A0A" stroke-miterlimit="10" d="M58.224,78.37L36.857,65.846c0,0-18.938-16.41-26.945-8.368
		c0,0-7.683,4.203-7.906,8.372l11.597,17.01c0,0,3.581,5.019,11.554,7.715c0,0,3.523-0.275,6.261,4.32l7.037,7.857
		c0,0,1.088,1.46,1.122,4.382c0,0,9.573,33.915,57.064,52.083c0,0,27.675,14.827,40.166,8.063c0,0-45.641-2.322-57.627-42.913
		c0,0,0.023-9.237-11.107-17.059c0,0-7.324-3.168-8.602-11.934c-0.487-3.338-0.097-0.199-0.244-5.31
		C59.227,90.061,59.618,82.869,58.224,78.37z"/>
	<circle fill="#111111" stroke="#FFFFFF" stroke-miterlimit="10" cx="20.415" cy="66.144" r="4.005"/>
	<g>
		<path fill="#FFFFFF" stroke="#000000" stroke-miterlimit="10" d="M67.883,58.987c0,0-8.04,11.799,3.448,27.512
			c0,0,28.649-7.307,27.763-24.291C99.094,62.208,87.571,51.645,67.883,58.987z"/>
		<path fill="#FFFFFF" stroke="#000000" stroke-miterlimit="10" d="M99.094,62.208l68.487,50.044c0,0,3.798,34.683-31.091,32.807
			l-65.16-58.561"/>
	</g>
	<circle fill="#E7A100" stroke="#FFFFFF" stroke-width="0.5" stroke-miterlimit="10" cx="166.293" cy="143.982" r="4.8"/>
	<circle stroke="#FFFFFF" stroke-width="0.5" stroke-miterlimit="10" cx="168.741" cy="133.885" r="3.227"/>
	<circle stroke="#FFFFFF" stroke-width="0.5" stroke-miterlimit="10" cx="193.773" cy="155.432" r="3.227"/>
	<circle fill="#00B4FF" stroke="#FFFFFF" stroke-width="0.5" stroke-miterlimit="10" cx="167.703" cy="170.733" r="3.227"/>
	<circle fill="#FF2E4B" stroke="#FFFFFF" stroke-width="0.5" stroke-miterlimit="10" cx="176.053" cy="140.713" r="2.288"/>
	<circle stroke="#FFFFFF" stroke-width="0.5" stroke-miterlimit="10" cx="157.991" cy="146.008" r="2.288"/>
	<circle fill="#FFFFFF" stroke="#000000" stroke-width="0.5" stroke-miterlimit="10" cx="174.67" cy="152.408" r="2.288"/>
	<circle fill="#C2F264" stroke="#FFFFFF" stroke-width="0.5" stroke-miterlimit="10" cx="164.739" cy="158.66" r="5.657"/>
	<circle fill="#CC4EEA" stroke="#FFFFFF" stroke-width="0.5" stroke-miterlimit="10" cx="181.844" cy="165.834" r="6.037"/>
	<circle fill="#FFFE00" stroke="#FFFFFF" stroke-width="0.5" stroke-miterlimit="10" cx="184.468" cy="147.408" r="5.657"/>
	<path fill="#FFFFFF" stroke="#0A0A0A" stroke-miterlimit="10" d="M57.437,108.089c0,0-4.275-0.486-9.299,2.788
		c0,0-4.369,2.668-0.64,4.36c0,0,27.219,11.571,46.552,10.607c0,0,43.547-3.093,46.384-4.263c0,0,12.076-1.416,11.529-3.343
		c0,0-11.35-2.825-19.832-1.829c0,0-30.254,0.744-44.168-1.986C87.963,114.423,60.816,107.04,57.437,108.089z"/>
</g>
<g>
</g>
<g>
</g>
<g>
</g>
<g>
</g>
<g>
</g>
<g>
</g>
<g>
</g>
<g>
</g>
<g>
</g>
<g>
</g>
<g>
</g>
<g>
</g>
<g>
</g>
<g>
</g>
<g>
</g>
</svg>