<?xml version="1.0" encoding="utf-8"?>
<!-- Generator: Adobe Illustrator 17.0.0, SVG Export Plug-In . SVG Version: 6.00 Build 0)  -->
<!DOCTYPE svg PUBLIC "-//W3C//DTD SVG 1.1//EN" "http://www.w3.org/Graphics/SVG/1.1/DTD/svg11.dtd">
<svg version="1.1" id="worldSvg" xmlns="http://www.w3.org/2000/svg" xmlns:xlink="http://www.w3.org/1999/xlink" x="0px" y="0px"
	viewBox="-25 -20 220 220" enable-background="new 0 0 200 200" xml:space="preserve">
<g>
	<g>
		<path fill="red" stroke="#000000" stroke-miterlimit="10" d="M111.993,167.427c-2.785,0-5.571,0-8.356,0
			c-0.204-0.064-0.403-0.157-0.612-0.188c-3.394-0.503-6.844-0.757-10.174-1.531c-35.336-8.219-57.459-42.375-50.623-78.034
			c7.817-40.774,51.561-64.849,90.051-49.212c22.866,9.289,36.618,26.468,41.371,50.738c0.482,2.46,0.683,4.974,1.015,7.463
			c0,2.698,0,5.397,0,8.095c-0.077,0.38-0.195,0.756-0.224,1.139c-0.483,6.413-1.771,12.667-4.224,18.608
			c-9.519,23.053-26.508,37.092-51.019,41.916C116.821,166.886,114.395,167.097,111.993,167.427z M138.573,115.093
			c-2.018,0.851-3.797,2.002-6.165,1.024c-1.618-0.668-3.427-0.715-4.711,0.992c-0.18,0.239-0.461,0.399-0.669,0.62
			c-2.23,2.372-5.195,2.063-8.021,2.134c-1.066,0.027-1.627-0.7-1.506-1.836c0.087-0.82,0.145-1.644,0.207-2.466
			c0.074-0.99-0.212-1.534-1.386-1.453c-0.974,0.067-1.996-0.018-2.944-0.253c-1.039-0.257-1.282-0.858-0.66-1.936
			c0.755-1.308,1.225-2.781,1.85-4.258c-2.034-0.347-3.53,0.35-4.336,1.716c-0.344,0.583-0.67,1.377-1.207,1.611
			c-2.915,1.272-7.062,0.639-7.003-4.111c0.034-2.74,1.358-4.883,2.799-7.024c0.733-1.089,1.68-1.649,3.036-1.697
			c2.111-0.075,4.255-0.08,6.041-1.576c0.368-0.308,1.08-0.327,1.62-0.288c1.91,0.139,3.321,0.953,4.087,2.867
			c0.528,1.32,1.123,2.739,2.907,3.271c0.089-0.53,0.293-0.971,0.202-1.339c-0.326-1.329-0.694-2.655-1.158-3.941
			c-0.36-0.996-0.382-1.886,0.405-2.638c1.06-1.013,2.102-2.067,3.279-2.93c1.218-0.893,1.951-1.962,2.43-3.405
			c0.555-1.67,1.416-3.248,2.248-4.811c0.237-0.446,0.801-0.92,1.276-0.995c1.103-0.174,1.479-0.878,1.835-1.772
			c0.655-1.643,1.407-2.017,3.018-1.279c0.918,0.42,1.591,0.282,2.439-0.085c2.651-1.148,2.692-1.372,0.432-3.269
			c-0.365-0.306-0.628-0.753-0.878-1.171c-0.257-0.43-0.427-0.912-0.662-1.357c-0.145-0.275-0.342-0.522-0.515-0.782
			c0.341-0.056,0.798-0.283,1.005-0.142c1.333,0.912,2.623,0.605,3.951,0.036c0.281-0.12,0.626-0.093,1.33-0.183
			c-0.527,1.013-0.951,1.703-1.246,2.445c-0.16,0.402-0.31,1.085-0.104,1.307c0.741,0.799,1.635,1.456,2.472,2.166
			c0.15-0.058,0.299-0.115,0.449-0.173c-0.164-0.882-0.267-1.783-0.512-2.642c-0.221-0.773-0.663-1.482-0.895-2.253
			c-0.546-1.818-0.945-3.683-1.557-5.477c-0.5-1.464-1.258-2.838-1.834-4.279c-0.375-0.939-0.63-1.927-1.006-3.104
			c-0.308,0.415-0.403,0.626-0.566,0.746c-0.419,0.31-1.132,0.908-1.258,0.806c-0.464-0.372-0.808-0.951-1.054-1.514
			c-0.142-0.325,0.044-0.778-0.017-1.158c-0.051-0.321-0.166-0.706-0.391-0.911c-0.629-0.575-1.286-1.144-2.012-1.581
			c-0.929-0.559-1.936-0.987-3.117-1.574c-0.05,0.929-0.034,1.491-0.121,2.037c-0.099,0.625-0.111,1.381-0.475,1.822
			c-0.686,0.832-0.624,1.423,0.112,2.111c0.476,0.445,0.824,1.016,0.176,1.556c-1.747,1.455-2.749,3.284-2.968,5.547
			c-0.005,0.057-0.13,0.102-0.201,0.154c-1.084-0.048-1.232-0.844-1.452-1.683c-0.244-0.929-0.404-2.092-1.04-2.664
			c-1.572-1.413-3.271-2.804-5.154-3.719c-1.843-0.895-2.471-3.998-0.922-5.318c1.997-1.702,4.252-3.106,6.433-4.583
			c0.292-0.198,0.802-0.074,1.357-0.108c-0.327,0.738-0.642,1.198-0.709,1.692c-0.042,0.311,0.245,0.928,0.463,0.966
			c1.101,0.194,2.227,0.244,3.558,0.364c-0.526-1.538-2.52-1.851-2.99-3.358c0.877-0.197,2.069-0.117,2.551-0.664
			c0.57-0.645,0.527-1.831,0.76-2.824c1.717,0.185,2.86,1.277,3.953,2.463c1.327,1.44,1.288,1.42,0.205,3.051
			c-0.456,0.686-0.848,0.857-1.572,0.483c-0.302-0.156-0.701-0.123-1.055-0.175c-0.077,0.129-0.153,0.259-0.23,0.388
			c0.419,0.364,0.805,0.776,1.263,1.08c0.706,0.469,1.521,0.789,2.179,1.311c0.812,0.645,1.552,1.397,2.246,2.171
			c0.586,0.654,1.147,1.078,1.998,0.49c0.878-0.606,0.177-1.23-0.003-1.829c-0.151-0.501-0.382-0.979-0.578-1.466
			c0.095-0.059,0.19-0.118,0.286-0.177c0.424,0.445,0.847,0.89,1.275,1.339c0.997-1.172,0.965-1.153,0.301-2.268
			c-0.708-1.19-1.768-2.176-1.866-3.73c-0.034-0.533-0.652-1.081-1.101-1.524c-0.766-0.756-1.871-1.287-2.368-2.174
			c-1.39-2.476-3.811-2.977-6.181-3.672c-1.315-0.386-2.34,0.132-3.126,0.761c-0.259,1.885,1.316,2.145,2.376,3.037
			c-0.728,0.616-1.312,1.11-1.668,1.412c-1.061-0.903-1.881-1.601-2.612-2.224c-0.035-0.586-0.038-1.165-0.112-1.734
			c-0.115-0.892-0.048-1.571,1.137-1.488c0.359,0.025,0.733-0.154,1.1-0.239c-1.273-0.565-2.541-0.824-3.795-1.137
			c-1.733-0.432-2.578,0.195-2.068,1.866c0.377,1.236-0.159,1.658-0.987,2.148c-0.26,0.154-0.514,0.33-0.74,0.53
			c-1.356,1.199-4.203,0.866-5.35-0.653c1.29-0.122,2.57-0.242,4.29-0.404c-1.702-1.423-0.507-2.577-0.31-4.014
			c-0.966,0.128-1.815,0.161-2.62,0.365c-1.169,0.296-2.374,0.537-3.351-0.262c-1.261-1.032-2.695-0.877-4.066-0.755
			c-1.307,0.116-2.581,0.61-3.87,0.938c0.022,0.163,0.044,0.326,0.066,0.489c1.291,0.279,2.853-0.31,3.861,1.118
			c-0.296,0.177-0.586,0.35-0.913,0.545c0.41,0.386,0.723,0.681,1.035,0.975c-0.063,0.135-0.126,0.27-0.19,0.405
			c-1.692-0.485-3.437-0.839-5.064-1.489c-2.133-0.852-4.229-0.745-6.376-0.263c-0.551,0.124-1.088,0.356-1.643,0.405
			c-0.934,0.082-1.913,0.23-2.813,0.05c-5.822-1.168-11.407-0.601-16.754,2.044c-1.053,0.521-1.825,1.164-1.945,2.496
			c-0.037,0.412-0.949,1.139-1.32,1.06c-1.711-0.361-3.721,1.143-3.641,2.969c0.536-0.079,1.066-0.157,1.596-0.234
			c0.068,0.117,0.137,0.235,0.205,0.352c-0.665,0.487-1.287,1.052-2.003,1.446c-2.967,1.633-4.789,3.848-3.999,7.538
			c0.497-0.022,1.019-0.045,1.989-0.088c-2.347,2.76-4.441,5.223-6.535,7.687c2.477-2.603,5.114-5.001,7.716-7.436
			c0.501-0.469,0.85-1.098,1.3-1.627c0.358-0.421,0.701-0.913,1.163-1.176c1.173-0.668,2.43-1.188,3.613-1.84
			c0.625-0.344,1.167-0.84,1.876-1.362c-0.036,1.41,1.027,1.178,1.668,1.423c1.344,0.514,2.359,1.277,2.618,2.772
			c0.298,1.719,0.572,3.443,0.897,5.405c-0.677,0.35-1.599,1.001-1.333,2.503c0.3-0.679,0.554-1.255,0.835-1.891
			c2.032,1.88,2.039,3.706,0.227,5.581c0.697,0.513,1.317,0.86,1.784,1.352c0.316,0.333,0.646,0.911,0.574,1.307
			c-0.247,1.357-0.673,2.681-1.024,4.02c-0.648,2.47-1.441,4.916-1.878,7.423c-0.236,1.352,0.088,2.818,0.263,4.22
			c0.089,0.71,0.582,1.388,0.591,2.085c0.019,1.448,0.733,2.324,1.881,3.045c0.529,0.332,1.124,0.779,1.358,1.318
			c0.81,1.864,1.836,3.743,2.101,5.708c0.31,2.299,1.707,3.839,2.83,5.596c0.282,0.442,0.995,0.609,1.822,1.081
			c-1.242-2.916-2.303-5.404-3.363-7.892c0.116-0.07,0.232-0.14,0.348-0.209c0.362,0.291,0.825,0.516,1.071,0.885
			c1.973,2.959,4.216,5.795,5.752,8.971c1.223,2.528,2.881,4.077,5.454,4.692c3.632,0.869,7.323,1.497,10.944,2.407
			c1.345,0.338,2.927,0.873,3.762,1.859c1.544,1.824,3.361,2.937,5.544,3.673c0.81,0.273,1.518,0.595,2.284-0.127
			c0.175-0.165,0.733-0.093,1.018,0.056c1.625,0.845,1.948,3.232,0.53,4.971c-1.385,1.698-2.864,3.28-2.436,5.721
			c0.014,0.077-0.023,0.179-0.068,0.249c-1.319,2.091-0.548,3.633,0.841,5.499c1.517,2.039,3.089,3.632,5.504,4.506
			c2.631,0.952,3.217,2.298,2.572,5.083c-0.383,1.65-0.997,3.279-1.123,4.946c-0.11,1.459-0.327,2.708-1.396,3.767
			c-0.27,0.267-0.283,0.787-0.432,1.184c-0.216,0.572-0.365,1.192-0.695,1.691c-0.359,0.544-0.718,0.944,0.376,1.124
			c-0.665,0.507-1.662,0.753-0.959,1.71c0.936,1.274,3.773,1.631,5.149,0.758c-0.422-0.333-0.864-0.682-1.314-1.037
			c1.22-1.328,2.304-2.527,3.414-3.702c0.286-0.302,0.653-0.528,1-0.803c-0.196-0.145-0.353-0.261-0.535-0.396
			c1.395-1.117,2.789-2.181,4.116-3.324c0.475-0.409,0.798-1.001,1.168-1.525c0.318-0.451,0.539-0.988,0.916-1.378
			c2.156-2.231,3.441-4.955,4.536-7.799c0.371-0.964,0.766-1.924,1.224-2.849c0.764-1.546,1.978-2.984,2.308-4.608
			c0.784-3.868,1.179-7.817,1.686-11.739c0.071-0.546-0.112-1.124-0.189-1.792c-1.841,1.281-2.896,0.881-3.729-1.044
			c-0.376-0.868-0.648-1.928-1.93-2.047C140.105,118.665,138.892,117.494,138.573,115.093z M127.685,107.883
			c-3.403-2.405-7.29-3.622-9.995-1.892c0.131,0.05,0.243,0.132,0.354,0.13c2.063-0.045,3.879,0.476,5.579,1.773
			C124.78,108.777,126.226,108.224,127.685,107.883z M125.798,40.451c2.084,1.02,4.135,1.854,6.529,1.861
			C131.775,41.176,126.635,39.69,125.798,40.451z M132.526,108.745c-0.059-0.177-0.119-0.355-0.178-0.532
			c-1.296,0.141-2.601,0.234-3.883,0.457c-0.336,0.059-0.602,0.523-0.901,0.801c0.424,0.23,0.876,0.692,1.267,0.645
			c1.016-0.123,2.015-0.438,3-0.745C132.102,109.286,132.297,108.96,132.526,108.745z M118.455,39.293
			c0.001-0.095,0.001-0.19,0.002-0.285c-2.371,0-4.742,0-7.113,0c-0.003,0.095-0.005,0.19-0.008,0.285
			C113.71,39.293,116.082,39.293,118.455,39.293z M119.549,39.27c1.6,0.442,3.201,0.883,4.931,1.361
			C123.153,38.805,121.333,39.094,119.549,39.27z"/>
		<path fill="none" stroke="#000000" stroke-miterlimit="10" d="M115.881,74.048c0.475-0.556,0.78-1.132,1.258-1.414
			c0.531-0.314,1.266-0.578,1.826-0.459c0.524,0.112,0.935,0.754,1.396,1.163c-0.313,0.305-0.593,0.821-0.944,0.874
			c-1.012,0.152-2.052,0.128-3.081,0.142C116.198,74.355,116.058,74.172,115.881,74.048z"/>
		<path fill="none" stroke="#000000" stroke-miterlimit="10" d="M118.448,80.679c-0.908-2.797-0.175-4.256,1.781-4.288
			C119.636,77.817,119.042,79.248,118.448,80.679z"/>
		<path fill="none" stroke="#000000" stroke-miterlimit="10" d="M122.096,75.655c0.688,0.16,1.376,0.321,2.232,0.52
			c-0.389,0.938-0.716,1.729-1.044,2.519c-0.167,0.019-0.333,0.038-0.5,0.057c-0.345-0.927-0.69-1.853-1.035-2.78
			C121.865,75.866,121.981,75.76,122.096,75.655z"/>
		<path fill="none" stroke="#000000" stroke-miterlimit="10" d="M98.174,45.626c1.114,0.307,1.946,0.536,2.778,0.765
			c-0.034,0.14-0.069,0.281-0.103,0.421C100.018,46.572,98.891,47.591,98.174,45.626z"/>
	</g>
	<path fill="none" stroke="#CE116F" stroke-miterlimit="10" d="M41.494,108.837c0,0-71.59,58.59-0.504,38.092
		c56.863-16.397,124.821-68.955,140.098-91.265c16.454-24.03-13.443-9.416-28.2-4.631"/>
	<path fill="none" stroke="#1578E5" stroke-miterlimit="10" d="M41.408,100.956c0,0-55.181,46.994-12.007,37.883
		c43.174-9.11,133.088-43.203,154.081-65.172S172.64,55.62,160.633,59.205"/>
	<path fill="none" stroke="#A6E007" stroke-miterlimit="10" d="M51.224,135.938c0,0-36.145,57.09-2.398,31.906
		s93.416-80.451,106.621-140.12c0,0,5.362-33.939-22.752,11.153"/>
</g>
<g>
</g>
<g>
</g>
<g>
</g>
<g>
</g>
<g>
</g>
<g>
</g>
<g>
</g>
<g>
</g>
<g>
</g>
<g>
</g>
<g>
</g>
<g>
</g>
<g>
</g>
<g>
</g>
<g>
</g>
</svg>
