<?xml version="1.0" encoding="utf-8"?>
<!-- Generator: Adobe Illustrator 17.0.0, SVG Export Plug-In . SVG Version: 6.00 Build 0)  -->
<!DOCTYPE svg PUBLIC "-//W3C//DTD SVG 1.1//EN" "http://www.w3.org/Graphics/SVG/1.1/DTD/svg11.dtd">
<svg version="1.1" id="Capa_1" xmlns="http://www.w3.org/2000/svg" xmlns:xlink="http://www.w3.org/1999/xlink" x="0px" y="0px"
	 width="1156px" height="180.394px" viewBox="0 0 1156 180.394" enable-background="new 0 0 1156 180.394" xml:space="preserve">
<g>
	<path fill="#FFFFFF" d="M132.191,0c0,0,0,35.612,0,79.138s45,79.138,100,79.138h668.83c55,0,100-35.612,100-79.138
		s0-79.138,0-79.138"/>
	<path fill="none" stroke="#575A5A" stroke-width="3" stroke-miterlimit="10" d="M132.191,0c0,0,0,35.612,0,79.138
		s45,79.138,100,79.138h668.83c55,0,100-35.612,100-79.138s0-79.138,0-79.138"/>
</g>
<linearGradient id="SVGID_1_" gradientUnits="userSpaceOnUse" x1="176.4557" y1="39.319" x2="957.6689" y2="39.319">
	<stop  offset="0" style="stop-color:#FFFFFF"/>
	<stop  offset="1" style="stop-color:#5982BD;stop-opacity:0"/>
</linearGradient>
<polyline fill="url(#SVGID_1_)" stroke="#565353" stroke-width="3" stroke-miterlimit="10" points="176.456,0 176.456,78.638 
	957.669,78.638 957.669,0 "/>
<g>
</g>
<g>
</g>
<g>
</g>
<g>
</g>
<g>
</g>
<g>
</g>
</svg>
