<?xml version="1.0" encoding="utf-8"?>
<!-- Generator: Adobe Illustrator 17.0.0, SVG Export Plug-In . SVG Version: 6.00 Build 0)  -->
<!DOCTYPE svg PUBLIC "-//W3C//DTD SVG 1.1//EN" "http://www.w3.org/Graphics/SVG/1.1/DTD/svg11.dtd">
<svg version="1.1" id="Capa_1" xmlns="http://www.w3.org/2000/svg" xmlns:xlink="http://www.w3.org/1999/xlink" x="0px" y="0px"
	style="width:100%;" viewBox="0 0 1200 365" enable-background="new 0 0 1200 365" xml:space="preserve">
<g>
	<g>
		<linearGradient id="SVGID_1_" gradientUnits="userSpaceOnUse" x1="246.5551" y1="97.2223" x2="584.8339" y2="97.2223">
			<stop  offset="0.3844" style="stop-color:#58167D"/>
			<stop  offset="0.9047" style="stop-color:#FFFFFF;stop-opacity:0"/>
		</linearGradient>
		<path id="headPathOne" fill="url(#SVGID_1_)" d="M248.114,196.838c46.967-34.398,103.599-46.447,159.031-60.118
			c13.725-3.385,27.349-7.148,41.06-10.582c12.783-3.202,25.555-6.501,37.843-11.319c25.115-9.848,43.455-28.058,59.418-49.331
			c15.345-20.449,27.554-43.033,41.104-64.658c1.717-2.741-2.61-5.248-4.317-2.524c-15.239,24.32-28.881,49.79-46.967,72.192
			c-8.803,10.904-18.752,21.388-30.462,29.177c-11.085,7.374-23.678,12.07-36.357,15.881c-53.57,16.1-109.636,24.214-162.007,44.256
			c-21.61,8.27-42.186,19.024-60.869,32.707C243.018,194.405,245.508,198.746,248.114,196.838L248.114,196.838z"/>
	</g>
</g>
<g>
</g>
<g>
</g>
<g>
</g>
<g>
</g>
<g>
</g>
<g>
</g>
</svg>
